<?xml version="1.0" encoding="utf-8"?>
<!-- Generator: Adobe Illustrator 22.0.1, SVG Export Plug-In . SVG Version: 6.00 Build 0)  -->
<svg version="1.1" id="Layer_1" xmlns="http://www.w3.org/2000/svg" xmlns:xlink="http://www.w3.org/1999/xlink" x="0px" y="0px"
	 viewBox="0 0 633.1 361.8" style="enable-background:new 0 0 633.1 361.8;" xml:space="preserve">
<style type="text/css">
	.st0{fill:#FFFFFF;stroke:#000000;stroke-width:2.3196;stroke-miterlimit:10;}
	.st1{fill:#FFFFFF;stroke:#FFFFFF;stroke-miterlimit:10;}
	.st2{fill:none;}
	.st3{enable-background:new    ;}
	.st4{fill:#EE2F65;}
	.st5{fill:#FFFFFF;}
	.st6{fill:none;stroke:#000000;stroke-width:1.7397;stroke-miterlimit:10;}
	.st7{display:none;fill:none;stroke:#CCCCCC;stroke-width:2;stroke-miterlimit:10;}
</style>
<rect x="58.4" y="16.7" class="st0" width="229.7" height="66"/>
<rect x="349.9" y="14.1" class="st0" width="229.7" height="66"/>
<rect x="58.4" y="145.1" class="st0" width="229.7" height="65.8"/>
<rect x="349.4" y="140.5" class="st0" width="229.7" height="65.8"/>
<rect x="348.6" y="279.9" class="st0" width="229.7" height="65.8"/>
<rect x="58.4" y="279.4" class="st0" width="229.7" height="66.1"/>
<line class="st1" x1="289.1" y1="185" x2="342.5" y2="185"/>
<line class="st1" x1="202" y1="245" x2="442.4" y2="245"/>
<line class="st1" x1="288.9" y1="53.1" x2="342.3" y2="53.1"/>
<line class="st1" x1="288.7" y1="312.4" x2="334" y2="312.4"/>
<rect x="132.3" y="164.3" class="st2" width="74.2" height="29.8"/>
<g class="st3">
	<path d="M133.9,165.6c1-0.2,2.3-0.4,3.6-0.4c2,0,3.3,0.5,4.2,1.5c0.7,0.8,1.2,2.1,1.2,3.5c0,2.5-1.2,4.1-2.8,4.8v0.1
		c1.1,0.5,1.8,1.8,2.2,3.8c0.5,2.6,0.8,4.4,1.1,5.1h-2c-0.2-0.5-0.6-2.1-1-4.5c-0.4-2.6-1.2-3.5-2.9-3.6h-1.8v8.1h-1.9V165.6z
		 M135.8,174.1h1.9c2,0,3.3-1.4,3.3-3.5c0-2.4-1.4-3.5-3.4-3.5c-0.9,0-1.6,0.1-1.9,0.2V174.1z"/>
	<path d="M146.7,177.7c0,3.3,1.7,4.7,3.6,4.7c1.4,0,2.2-0.3,2.9-0.7l0.3,1.7c-0.7,0.4-1.8,0.8-3.5,0.8c-3.2,0-5.2-2.7-5.2-6.8
		c0-4,1.9-7.2,4.9-7.2c3.4,0,4.4,3.8,4.4,6.3c0,0.5,0,0.9-0.1,1.1H146.7z M152.3,176c0-1.6-0.5-4-2.7-4c-1.9,0-2.8,2.3-2.9,4H152.3z
		"/>
	<path d="M164.1,183.5c-0.5,0.3-1.6,0.8-3,0.8c-3.2,0-5.3-2.7-5.3-6.8c0-4.1,2.2-7.1,5.7-7.1c1.1,0,2.1,0.4,2.7,0.7l-0.4,1.9
		c-0.5-0.3-1.2-0.6-2.2-0.6c-2.4,0-3.7,2.3-3.7,5.1c0,3.1,1.6,5,3.7,5c1.1,0,1.8-0.4,2.4-0.7L164.1,183.5z"/>
	<path d="M168.4,166.8c0,0.8-0.5,1.5-1.2,1.5c-0.7,0-1.2-0.7-1.2-1.5c0-0.9,0.5-1.5,1.2-1.5C168,165.3,168.4,166,168.4,166.8z
		 M166.3,184v-13.4h1.9V184H166.3z"/>
	<path d="M171.4,175c0-1.7,0-3.1-0.1-4.4h1.7l0.1,2.3h0c0.8-1.6,2-2.6,3.7-2.6c2.5,0,4.5,2.7,4.5,6.8c0,4.8-2.3,7.2-4.8,7.2
		c-1.4,0-2.6-0.8-3.2-2.1h0v7.3h-1.9V175z M173.3,178.5c0,0.4,0,0.7,0.1,1c0.3,1.7,1.5,2.9,2.9,2.9c2,0,3.2-2.1,3.2-5.2
		c0-2.7-1.1-5-3.1-5c-1.3,0-2.5,1.2-2.9,3c-0.1,0.3-0.1,0.7-0.1,1V178.5z"/>
	<path d="M184.9,177.7c0,3.3,1.7,4.7,3.6,4.7c1.4,0,2.2-0.3,2.9-0.7l0.3,1.7c-0.7,0.4-1.8,0.8-3.5,0.8c-3.2,0-5.2-2.7-5.2-6.8
		c0-4,1.9-7.2,4.9-7.2c3.4,0,4.4,3.8,4.4,6.3c0,0.5,0,0.9-0.1,1.1H184.9z M190.5,176c0-1.6-0.5-4-2.7-4c-1.9,0-2.8,2.3-2.9,4H190.5z
		"/>
	<path d="M194.4,181.5c0.6,0.5,1.6,1,2.5,1c1.4,0,2-0.9,2-2c0-1.2-0.5-1.8-2-2.5c-1.9-0.9-2.8-2.2-2.8-3.8c0-2.2,1.4-3.9,3.6-3.9
		c1.1,0,2,0.4,2.6,0.8l-0.5,1.8c-0.4-0.3-1.2-0.8-2.2-0.8c-1.1,0-1.8,0.8-1.8,1.8c0,1.1,0.6,1.6,2,2.3c1.8,0.9,2.8,2,2.8,4
		c0,2.4-1.4,4-3.9,4c-1.2,0-2.2-0.4-3-0.9L194.4,181.5z"/>
</g>
<g>
	<rect x="101" y="302.7" class="st2" width="167.5" height="29.8"/>
	<g class="st3">
		<path class="st4" d="M108.2,320.9l-0.1-1.6H108c-0.6,1-1.7,1.8-3.2,1.8c-2.1,0-3.2-1.8-3.2-3.5c0-3,2.2-4.6,6.2-4.6v-0.3
			c0-1-0.2-2.9-2.3-2.9c-1,0-2,0.4-2.7,0.9l-0.4-1.5c0.9-0.7,2.1-1.1,3.4-1.1c3.2,0,3.9,2.6,3.9,5.1v4.6c0,1.1,0,2.1,0.2,3H108.2z
			 M108,314.6c-2-0.1-4.4,0.4-4.4,2.8c0,1.5,0.8,2.1,1.8,2.1c1.3,0,2.2-1,2.5-2.1c0.1-0.2,0.1-0.5,0.1-0.7V314.6z"/>
		<path class="st4" d="M121.7,302.8v14.9c0,1.1,0,2.3,0.1,3.2h-1.7l-0.1-2.1h0c-0.6,1.4-1.8,2.4-3.5,2.4c-2.5,0-4.4-2.5-4.4-6.3
			c0-4.1,2.1-6.6,4.6-6.6c1.6,0,2.6,0.9,3.1,1.9h0v-7.4H121.7z M119.8,313.6c0-0.3,0-0.7-0.1-0.9c-0.3-1.4-1.3-2.6-2.7-2.6
			c-1.9,0-3.1,2-3.1,4.8c0,2.5,1,4.6,3,4.6c1.3,0,2.4-1,2.7-2.7c0.1-0.3,0.1-0.6,0.1-1V313.6z"/>
		<path class="st4" d="M133.7,302.8v14.9c0,1.1,0,2.3,0.1,3.2h-1.7l-0.1-2.1h0c-0.6,1.4-1.8,2.4-3.5,2.4c-2.5,0-4.4-2.5-4.4-6.3
			c0-4.1,2.1-6.6,4.6-6.6c1.6,0,2.6,0.9,3.1,1.9h0v-7.4H133.7z M131.8,313.6c0-0.3,0-0.7-0.1-0.9c-0.3-1.4-1.3-2.6-2.7-2.6
			c-1.9,0-3.1,2-3.1,4.8c0,2.5,1,4.6,3,4.6c1.3,0,2.4-1,2.7-2.7c0.1-0.3,0.1-0.6,0.1-1V313.6z"/>
		<path class="st4" d="M143.6,305v3.5h2.7v1.7h-2.7v6.7c0,1.5,0.4,2.4,1.4,2.4c0.5,0,0.9-0.1,1.1-0.2l0.1,1.7
			c-0.4,0.2-0.9,0.3-1.7,0.3c-0.9,0-1.6-0.3-2-0.9c-0.5-0.7-0.7-1.8-0.7-3.2v-6.7h-1.6v-1.7h1.6v-3L143.6,305z"/>
		<path class="st4" d="M157.6,314.6c0,4.6-2.6,6.6-5.1,6.6c-2.8,0-4.9-2.4-4.9-6.4c0-4.1,2.3-6.6,5.1-6.6
			C155.6,308.2,157.6,310.8,157.6,314.6z M149.4,314.7c0,2.7,1.3,4.7,3.1,4.7c1.8,0,3.1-2,3.1-4.8c0-2.1-0.9-4.7-3.1-4.7
			C150.4,309.9,149.4,312.4,149.4,314.7z"/>
		<path class="st4" d="M164.7,320.9v-10.6h-1.4v-1.7h1.4v-0.6c0-1.7,0.3-3.3,1.2-4.3c0.7-0.8,1.6-1.1,2.5-1.1c0.7,0,1.2,0.2,1.6,0.4
			l-0.3,1.7c-0.3-0.2-0.7-0.3-1.2-0.3c-1.6,0-2,1.7-2,3.6v0.7h2.5v1.7h-2.5v10.6H164.7z"/>
		<path class="st4" d="M176.4,320.9l-0.1-1.6h-0.1c-0.6,1-1.7,1.8-3.2,1.8c-2.1,0-3.2-1.8-3.2-3.5c0-3,2.2-4.6,6.2-4.6v-0.3
			c0-1-0.2-2.9-2.3-2.9c-1,0-2,0.4-2.7,0.9l-0.4-1.5c0.9-0.7,2.1-1.1,3.4-1.1c3.2,0,3.9,2.6,3.9,5.1v4.6c0,1.1,0,2.1,0.2,3H176.4z
			 M176.1,314.6c-2-0.1-4.4,0.4-4.4,2.8c0,1.5,0.8,2.1,1.8,2.1c1.3,0,2.2-1,2.5-2.1c0.1-0.2,0.1-0.5,0.1-0.7V314.6z"/>
		<path class="st4" d="M181.5,308.5l2,6.9c0.3,1.1,0.6,2.1,0.8,3.2h0.1c0.2-1,0.5-2,0.9-3.2l2-6.9h2l-4,12.3h-1.8l-3.9-12.3H181.5z"
			/>
		<path class="st4" d="M200.1,314.6c0,4.6-2.6,6.6-5.1,6.6c-2.8,0-4.9-2.4-4.9-6.4c0-4.1,2.3-6.6,5.1-6.6
			C198.1,308.2,200.1,310.8,200.1,314.6z M192,314.7c0,2.7,1.3,4.7,3.1,4.7c1.8,0,3.1-2,3.1-4.8c0-2.1-0.9-4.7-3.1-4.7
			C192.9,309.9,192,312.4,192,314.7z"/>
		<path class="st4" d="M202.5,312.4c0-1.5,0-2.7-0.1-3.9h1.6l0.1,2.4h0.1c0.5-1.7,1.6-2.7,2.9-2.7c0.2,0,0.4,0,0.5,0.1v2.1
			c-0.2-0.1-0.4-0.1-0.6-0.1c-1.3,0-2.3,1.2-2.5,2.9c0,0.3-0.1,0.7-0.1,1v6.6h-1.9V312.4z"/>
		<path class="st4" d="M211.6,305.1c0,0.8-0.4,1.4-1.2,1.4c-0.7,0-1.1-0.6-1.1-1.4c0-0.8,0.5-1.4,1.2-1.4
			C211.2,303.7,211.6,304.3,211.6,305.1z M209.5,320.9v-12.3h1.9v12.3H209.5z"/>
		<path class="st4" d="M216.8,305v3.5h2.7v1.7h-2.7v6.7c0,1.5,0.4,2.4,1.4,2.4c0.5,0,0.9-0.1,1.1-0.2l0.1,1.7
			c-0.4,0.2-0.9,0.3-1.7,0.3c-0.9,0-1.6-0.3-2-0.9c-0.5-0.7-0.7-1.8-0.7-3.2v-6.7h-1.6v-1.7h1.6v-3L216.8,305z"/>
		<path class="st4" d="M222.5,315.1c0,3,1.7,4.3,3.5,4.3c1.3,0,2.2-0.3,2.9-0.6l0.3,1.6c-0.7,0.4-1.8,0.8-3.4,0.8
			c-3.2,0-5.1-2.5-5.1-6.2s1.8-6.7,4.8-6.7c3.4,0,4.3,3.5,4.3,5.8c0,0.5,0,0.8-0.1,1H222.5z M228,313.5c0-1.4-0.5-3.6-2.6-3.6
			c-1.9,0-2.7,2.1-2.9,3.6H228z"/>
	</g>
</g>
<g>
	<rect x="392.8" y="162.5" class="st2" width="179" height="40.1"/>
	<g class="st3">
		<path d="M400.2,182.2l-0.2-1.7H400c-0.6,1.1-1.7,2-3.2,2c-2.1,0-3.2-1.9-3.2-3.8c0-3.2,2.3-5,6.3-5v-0.3c0-1.1-0.2-3.1-2.4-3.1
			c-1,0-2,0.4-2.7,1l-0.4-1.6c0.9-0.7,2.1-1.2,3.5-1.2c3.2,0,4,2.8,4,5.5v5c0,1.2,0,2.3,0.2,3.2H400.2z M400,175.3
			c-2.1-0.1-4.5,0.4-4.5,3c0,1.6,0.8,2.3,1.8,2.3c1.4,0,2.2-1.1,2.5-2.2c0.1-0.2,0.1-0.5,0.1-0.8V175.3z"/>
		<path d="M414,162.5v16.2c0,1.2,0,2.5,0.1,3.5h-1.7l-0.1-2.3h0c-0.6,1.5-1.9,2.6-3.6,2.6c-2.5,0-4.5-2.7-4.5-6.8
			c0-4.5,2.2-7.2,4.7-7.2c1.6,0,2.7,1,3.2,2h0v-8H414z M412.1,174.2c0-0.3,0-0.7-0.1-1c-0.3-1.6-1.3-2.8-2.8-2.8
			c-2,0-3.2,2.2-3.2,5.2c0,2.7,1,5,3.1,5c1.3,0,2.5-1.1,2.8-2.9c0.1-0.3,0.1-0.7,0.1-1.1V174.2z"/>
		<path d="M426.3,162.5v16.2c0,1.2,0,2.5,0.1,3.5h-1.7l-0.1-2.3h0c-0.6,1.5-1.9,2.6-3.6,2.6c-2.5,0-4.5-2.7-4.5-6.8
			c0-4.5,2.2-7.2,4.7-7.2c1.6,0,2.7,1,3.2,2h0v-8H426.3z M424.4,174.2c0-0.3,0-0.7-0.1-1c-0.3-1.6-1.3-2.8-2.8-2.8
			c-2,0-3.2,2.2-3.2,5.2c0,2.7,1,5,3.1,5c1.3,0,2.5-1.1,2.8-2.9c0.1-0.3,0.1-0.7,0.1-1.1V174.2z"/>
		<path d="M438.7,172.4c0-1.4,0-2.5-0.1-3.6h1.7l0.1,2.2h0c0.5-1.3,1.7-2.5,3.5-2.5c1.5,0,3.7,1.1,3.7,5.7v8h-1.9v-7.7
			c0-2.2-0.6-4-2.4-4c-1.3,0-2.2,1.1-2.6,2.5c-0.1,0.3-0.1,0.7-0.1,1.1v8.1h-1.9V172.4z"/>
		<path d="M451.9,175.9c0,3.3,1.7,4.7,3.6,4.7c1.4,0,2.2-0.3,2.9-0.7l0.3,1.7c-0.7,0.4-1.8,0.8-3.5,0.8c-3.2,0-5.2-2.7-5.2-6.8
			c0-4,1.9-7.2,4.9-7.2c3.4,0,4.4,3.8,4.4,6.3c0,0.5,0,0.9-0.1,1.1H451.9z M457.5,174.2c0-1.6-0.5-4-2.7-4c-1.9,0-2.8,2.3-2.9,4
			H457.5z"/>
		<path d="M462.5,168.8l1.4,6.8c0.3,1.5,0.6,2.9,0.8,4.3h0.1c0.2-1.4,0.6-2.8,0.9-4.2l1.7-6.8h1.6l1.6,6.7c0.4,1.6,0.7,3,0.9,4.4
			h0.1c0.2-1.4,0.5-2.8,0.8-4.3l1.5-6.7h1.9l-3.4,13.4h-1.7l-1.6-6.4c-0.4-1.5-0.7-2.8-0.9-4.4h0c-0.3,1.6-0.6,3-1,4.4l-1.7,6.4
			h-1.7l-3.2-13.4H462.5z"/>
		<path d="M482.4,173c0-1.6,0-2.9-0.1-4.2h1.7l0.1,2.6h0.1c0.5-1.8,1.6-2.9,2.9-2.9c0.2,0,0.4,0,0.5,0.1v2.3
			c-0.2-0.1-0.4-0.1-0.7-0.1c-1.4,0-2.3,1.3-2.6,3.1c0,0.3-0.1,0.7-0.1,1.1v7.1h-1.9V173z"/>
		<path d="M490.3,175.9c0,3.3,1.7,4.7,3.6,4.7c1.4,0,2.2-0.3,2.9-0.7l0.3,1.7c-0.7,0.4-1.8,0.8-3.5,0.8c-3.2,0-5.2-2.7-5.2-6.8
			c0-4,1.9-7.2,4.9-7.2c3.4,0,4.4,3.8,4.4,6.3c0,0.5,0,0.9-0.1,1.1H490.3z M496,174.2c0-1.6-0.5-4-2.7-4c-1.9,0-2.8,2.3-2.9,4H496z"
			/>
		<path d="M507.7,181.7c-0.5,0.3-1.6,0.8-3,0.8c-3.2,0-5.3-2.7-5.3-6.8c0-4.1,2.2-7.1,5.7-7.1c1.1,0,2.1,0.4,2.7,0.7l-0.4,1.9
			c-0.5-0.3-1.2-0.6-2.2-0.6c-2.4,0-3.7,2.3-3.7,5.1c0,3.1,1.6,5,3.7,5c1.1,0,1.8-0.4,2.4-0.7L507.7,181.7z"/>
		<path d="M512.1,165c0,0.8-0.5,1.5-1.2,1.5c-0.7,0-1.2-0.7-1.2-1.5c0-0.9,0.5-1.5,1.2-1.5C511.6,163.5,512.1,164.2,512.1,165z
			 M509.9,182.2v-13.4h1.9v13.4H509.9z"/>
		<path d="M515,173.2c0-1.7,0-3.1-0.1-4.4h1.7l0.1,2.3h0c0.8-1.6,2-2.6,3.7-2.6c2.5,0,4.5,2.7,4.5,6.8c0,4.8-2.3,7.2-4.8,7.2
			c-1.4,0-2.6-0.8-3.2-2.1h0v7.3H515V173.2z M516.9,176.7c0,0.4,0,0.7,0.1,1c0.3,1.7,1.5,2.9,2.9,2.9c2,0,3.2-2.1,3.2-5.2
			c0-2.7-1.1-5-3.1-5c-1.3,0-2.5,1.2-2.9,3c-0.1,0.3-0.1,0.7-0.1,1V176.7z"/>
		<path d="M528.5,175.9c0,3.3,1.7,4.7,3.6,4.7c1.4,0,2.2-0.3,2.9-0.7l0.3,1.7c-0.7,0.4-1.8,0.8-3.5,0.8c-3.2,0-5.2-2.7-5.2-6.8
			c0-4,1.9-7.2,4.9-7.2c3.4,0,4.4,3.8,4.4,6.3c0,0.5,0,0.9-0.1,1.1H528.5z M534.1,174.2c0-1.6-0.5-4-2.7-4c-1.9,0-2.8,2.3-2.9,4
			H534.1z"/>
	</g>
</g>
<rect x="375.5" y="302.5" class="st2" width="181.5" height="30.5"/>
<g class="st3">
	<path class="st4" d="M382.7,320.7l-0.1-1.6h-0.1c-0.6,1-1.7,1.8-3.2,1.8c-2.1,0-3.2-1.8-3.2-3.5c0-3,2.2-4.6,6.2-4.6v-0.3
		c0-1-0.2-2.9-2.3-2.9c-1,0-2,0.4-2.7,0.9l-0.4-1.5c0.9-0.7,2.1-1.1,3.4-1.1c3.2,0,3.9,2.6,3.9,5.1v4.6c0,1.1,0,2.1,0.2,3H382.7z
		 M382.5,314.4c-2-0.1-4.4,0.4-4.4,2.8c0,1.5,0.8,2.1,1.8,2.1c1.3,0,2.2-1,2.5-2.1c0.1-0.2,0.1-0.5,0.1-0.7V314.4z"/>
	<path class="st4" d="M396.2,302.6v14.9c0,1.1,0,2.3,0.1,3.2h-1.7l-0.1-2.1h0c-0.6,1.4-1.8,2.4-3.5,2.4c-2.5,0-4.4-2.5-4.4-6.3
		c0-4.1,2.1-6.6,4.6-6.6c1.6,0,2.6,0.9,3.1,1.9h0v-7.4H396.2z M394.3,313.4c0-0.3,0-0.7-0.1-0.9c-0.3-1.4-1.3-2.6-2.7-2.6
		c-1.9,0-3.1,2-3.1,4.8c0,2.5,1,4.6,3,4.6c1.3,0,2.4-1,2.7-2.7c0.1-0.3,0.1-0.6,0.1-1V313.4z"/>
	<path class="st4" d="M408.2,302.6v14.9c0,1.1,0,2.3,0.1,3.2h-1.7l-0.1-2.1h0c-0.6,1.4-1.8,2.4-3.5,2.4c-2.5,0-4.4-2.5-4.4-6.3
		c0-4.1,2.1-6.6,4.6-6.6c1.6,0,2.6,0.9,3.1,1.9h0v-7.4H408.2z M406.3,313.4c0-0.3,0-0.7-0.1-0.9c-0.3-1.4-1.3-2.6-2.7-2.6
		c-1.9,0-3.1,2-3.1,4.8c0,2.5,1,4.6,3,4.6c1.3,0,2.4-1,2.7-2.7c0.1-0.3,0.1-0.6,0.1-1V313.4z"/>
	<path class="st4" d="M418.1,304.8v3.5h2.7v1.7h-2.7v6.7c0,1.5,0.4,2.4,1.4,2.4c0.5,0,0.9-0.1,1.1-0.2l0.1,1.7
		c-0.4,0.2-0.9,0.3-1.7,0.3c-0.9,0-1.6-0.3-2-0.9c-0.5-0.7-0.7-1.8-0.7-3.2V310h-1.6v-1.7h1.6v-3L418.1,304.8z"/>
	<path class="st4" d="M432.1,314.4c0,4.6-2.6,6.6-5.1,6.6c-2.8,0-4.9-2.4-4.9-6.4c0-4.1,2.3-6.6,5.1-6.6
		C430.1,308,432.1,310.6,432.1,314.4z M423.9,314.5c0,2.7,1.3,4.7,3.1,4.7c1.8,0,3.1-2,3.1-4.8c0-2.1-0.9-4.7-3.1-4.7
		C424.9,309.7,423.9,312.2,423.9,314.5z"/>
	<path class="st4" d="M438.7,318.4c0.6,0.4,1.5,0.9,2.5,0.9c1.4,0,2-0.8,2-1.8c0-1.1-0.5-1.7-1.9-2.3c-1.9-0.8-2.7-2-2.7-3.5
		c0-2,1.3-3.6,3.6-3.6c1,0,2,0.4,2.5,0.8l-0.5,1.6c-0.4-0.3-1.2-0.7-2.1-0.7c-1.1,0-1.7,0.8-1.7,1.7c0,1,0.6,1.5,2,2.1
		c1.8,0.8,2.7,1.9,2.7,3.7c0,2.2-1.4,3.7-3.9,3.7c-1.1,0-2.2-0.3-2.9-0.8L438.7,318.4z"/>
	<path class="st4" d="M447.4,302.6h1.9v7.7h0c0.3-0.6,0.8-1.2,1.3-1.6c0.6-0.4,1.2-0.6,1.9-0.6c1.4,0,3.6,1,3.6,5.3v7.3h-1.9v-7.1
		c0-2-0.6-3.7-2.4-3.7c-1.2,0-2.2,1-2.5,2.2c-0.1,0.3-0.1,0.6-0.1,1.1v7.5h-1.9V302.6z"/>
	<path class="st4" d="M468.5,314.4c0,4.6-2.6,6.6-5.1,6.6c-2.8,0-4.9-2.4-4.9-6.4c0-4.1,2.3-6.6,5.1-6.6
		C466.5,308,468.5,310.6,468.5,314.4z M460.3,314.5c0,2.7,1.3,4.7,3.1,4.7c1.8,0,3.1-2,3.1-4.8c0-2.1-0.9-4.7-3.1-4.7
		C461.3,309.7,460.3,312.2,460.3,314.5z"/>
	<path class="st4" d="M470.9,312.4c0-1.6,0-2.9-0.1-4h1.7l0.1,2.1h0c0.8-1.5,2-2.4,3.7-2.4c2.5,0,4.4,2.5,4.4,6.3
		c0,4.4-2.3,6.6-4.7,6.6c-1.4,0-2.6-0.7-3.2-1.9h0v6.7h-1.9V312.4z M472.7,315.7c0,0.3,0,0.6,0.1,0.9c0.3,1.6,1.5,2.6,2.8,2.6
		c2,0,3.1-1.9,3.1-4.8c0-2.5-1.1-4.6-3.1-4.6c-1.3,0-2.5,1.1-2.8,2.8c-0.1,0.3-0.1,0.6-0.1,0.9V315.7z"/>
	<path class="st4" d="M483,312.4c0-1.6,0-2.9-0.1-4h1.7l0.1,2.1h0c0.8-1.5,2-2.4,3.7-2.4c2.5,0,4.4,2.5,4.4,6.3
		c0,4.4-2.3,6.6-4.7,6.6c-1.4,0-2.6-0.7-3.2-1.9h0v6.7H483V312.4z M484.9,315.7c0,0.3,0,0.6,0.1,0.9c0.3,1.6,1.5,2.6,2.8,2.6
		c2,0,3.1-1.9,3.1-4.8c0-2.5-1.1-4.6-3.1-4.6c-1.3,0-2.5,1.1-2.8,2.8c-0.1,0.3-0.1,0.6-0.1,0.9V315.7z"/>
	<path class="st4" d="M497.2,304.9c0,0.8-0.4,1.4-1.2,1.4c-0.7,0-1.1-0.6-1.1-1.4c0-0.8,0.5-1.4,1.2-1.4
		C496.8,303.5,497.2,304.1,497.2,304.9z M495.1,320.7v-12.3h1.9v12.3H495.1z"/>
	<path class="st4" d="M500.1,311.7c0-1.3,0-2.3-0.1-3.3h1.7l0.1,2h0c0.5-1.2,1.7-2.3,3.4-2.3c1.4,0,3.6,1,3.6,5.3v7.4H507v-7.1
		c0-2-0.6-3.6-2.4-3.6c-1.2,0-2.2,1-2.5,2.3c-0.1,0.3-0.1,0.7-0.1,1v7.4h-1.9V311.7z"/>
	<path class="st4" d="M520.8,308.3c0,0.9-0.1,1.9-0.1,3.4v7.2c0,2.8-0.5,4.6-1.5,5.6c-1,1.1-2.5,1.5-3.7,1.5c-1.2,0-2.6-0.4-3.4-1
		l0.5-1.7c0.7,0.5,1.7,1,3,1c1.9,0,3.3-1.2,3.3-4.3v-1.4h0c-0.6,1.1-1.7,2.1-3.3,2.1c-2.6,0-4.4-2.6-4.4-6c0-4.2,2.3-6.6,4.6-6.6
		c1.8,0,2.8,1.1,3.2,2.1h0l0.1-1.9H520.8z M518.9,313.2c0-0.4,0-0.7-0.1-1c-0.3-1.3-1.3-2.4-2.6-2.4c-1.8,0-3.1,1.8-3.1,4.7
		c0,2.4,1,4.4,3,4.4c1.2,0,2.2-0.9,2.6-2.3c0.1-0.4,0.1-0.8,0.1-1.2V313.2z"/>
	<path class="st4" d="M528.3,302.6h1.9v18.1h-1.9V302.6z"/>
	<path class="st4" d="M535.5,304.9c0,0.8-0.4,1.4-1.2,1.4c-0.7,0-1.1-0.6-1.1-1.4c0-0.8,0.5-1.4,1.2-1.4
		C535,303.5,535.5,304.1,535.5,304.9z M533.4,320.7v-12.3h1.9v12.3H533.4z"/>
	<path class="st4" d="M538.1,318.4c0.6,0.4,1.5,0.9,2.5,0.9c1.4,0,2-0.8,2-1.8c0-1.1-0.5-1.7-1.9-2.3c-1.9-0.8-2.7-2-2.7-3.5
		c0-2,1.3-3.6,3.6-3.6c1,0,2,0.4,2.5,0.8l-0.5,1.6c-0.4-0.3-1.2-0.7-2.1-0.7c-1.1,0-1.7,0.8-1.7,1.7c0,1,0.6,1.5,2,2.1
		c1.8,0.8,2.7,1.9,2.7,3.7c0,2.2-1.4,3.7-3.9,3.7c-1.1,0-2.2-0.3-2.9-0.8L538.1,318.4z"/>
	<path class="st4" d="M549,304.8v3.5h2.7v1.7H549v6.7c0,1.5,0.4,2.4,1.4,2.4c0.5,0,0.9-0.1,1.1-0.2l0.1,1.7
		c-0.4,0.2-0.9,0.3-1.7,0.3c-0.9,0-1.6-0.3-2-0.9c-0.5-0.7-0.7-1.8-0.7-3.2V310h-1.6v-1.7h1.6v-3L549,304.8z"/>
</g>
<line class="st1" x1="173.1" y1="82.7" x2="173.3" y2="136.7"/>
<rect x="372.2" y="39.7" class="st2" width="193" height="28.3"/>
<g class="st3">
	<path d="M380,57.9l-0.2-1.6h-0.1c-0.6,1-1.8,1.8-3.4,1.8c-2.2,0-3.4-1.8-3.4-3.5c0-3,2.4-4.6,6.7-4.6v-0.3c0-1-0.3-2.9-2.5-2.9
		c-1,0-2.1,0.4-2.9,0.9l-0.5-1.5c0.9-0.7,2.2-1.1,3.6-1.1c3.4,0,4.2,2.6,4.2,5.1v4.6c0,1.1,0,2.1,0.2,3H380z M379.7,51.6
		c-2.2-0.1-4.7,0.4-4.7,2.8c0,1.5,0.9,2.1,1.9,2.1c1.4,0,2.4-1,2.7-2.1c0.1-0.2,0.1-0.5,0.1-0.7V51.6z"/>
	<path d="M394.5,39.8v14.9c0,1.1,0,2.3,0.1,3.2h-1.8l-0.1-2.1h0c-0.6,1.4-2,2.4-3.8,2.4c-2.7,0-4.7-2.5-4.7-6.3c0-4.1,2.3-6.6,5-6.6
		c1.7,0,2.8,0.9,3.3,1.9h0v-7.4H394.5z M392.4,50.6c0-0.3,0-0.7-0.1-0.9c-0.3-1.4-1.4-2.6-2.9-2.6c-2.1,0-3.3,2-3.3,4.8
		c0,2.5,1.1,4.6,3.3,4.6c1.3,0,2.6-1,2.9-2.7c0.1-0.3,0.1-0.6,0.1-1V50.6z"/>
	<path d="M407.3,39.8v14.9c0,1.1,0,2.3,0.1,3.2h-1.8l-0.1-2.1h0c-0.6,1.4-2,2.4-3.8,2.4c-2.7,0-4.7-2.5-4.7-6.3c0-4.1,2.3-6.6,5-6.6
		c1.7,0,2.8,0.9,3.3,1.9h0v-7.4H407.3z M405.3,50.6c0-0.3,0-0.7-0.1-0.9c-0.3-1.4-1.4-2.6-2.9-2.6c-2.1,0-3.3,2-3.3,4.8
		c0,2.5,1.1,4.6,3.3,4.6c1.3,0,2.6-1,2.9-2.7c0.1-0.3,0.1-0.6,0.1-1V50.6z"/>
	<path d="M415.5,48.9c0-1.3,0-2.3-0.1-3.3h1.8l0.1,2h0c0.5-1.2,1.8-2.3,3.7-2.3c1.5,0,3.9,1,3.9,5.3v7.4h-2v-7.1
		c0-2-0.7-3.6-2.6-3.6c-1.3,0-2.4,1-2.7,2.3c-0.1,0.3-0.1,0.7-0.1,1v7.4h-2V48.9z"/>
	<path d="M429.3,52.1c0,3,1.8,4.3,3.8,4.3c1.4,0,2.3-0.3,3.1-0.6l0.3,1.6c-0.7,0.4-1.9,0.8-3.7,0.8c-3.4,0-5.4-2.5-5.4-6.2
		c0-3.7,2-6.7,5.2-6.7c3.6,0,4.6,3.5,4.6,5.8c0,0.5,0,0.8-0.1,1H429.3z M435.2,50.5c0-1.4-0.5-3.6-2.8-3.6c-2,0-2.9,2.1-3.1,3.6
		H435.2z"/>
	<path d="M440.5,45.6l1.5,6.3c0.3,1.4,0.6,2.7,0.8,3.9h0.1c0.3-1.2,0.6-2.6,1-3.9l1.8-6.3h1.7l1.7,6.2c0.4,1.5,0.7,2.8,1,4h0.1
		c0.2-1.2,0.5-2.6,0.8-4l1.6-6.2h2l-3.6,12.3h-1.8l-1.7-5.9c-0.4-1.4-0.7-2.6-1-4.1h0c-0.3,1.5-0.6,2.8-1,4.1l-1.8,5.9h-1.8
		l-3.3-12.3H440.5z"/>
	<path d="M472.2,57.3c-0.7,0.4-2.2,0.8-4.1,0.8c-4.3,0-7.6-3.1-7.6-8.7c0-5.4,3.3-9,8-9c1.9,0,3.1,0.5,3.7,0.8l-0.5,1.8
		c-0.8-0.4-1.8-0.7-3.1-0.7c-3.6,0-6,2.6-6,7.1c0,4.2,2.2,6.9,5.9,6.9c1.2,0,2.4-0.3,3.2-0.7L472.2,57.3z"/>
	<path d="M480.6,57.9l-0.2-1.6h-0.1c-0.6,1-1.8,1.8-3.4,1.8c-2.2,0-3.4-1.8-3.4-3.5c0-3,2.4-4.6,6.7-4.6v-0.3c0-1-0.3-2.9-2.5-2.9
		c-1,0-2.1,0.4-2.9,0.9l-0.5-1.5c0.9-0.7,2.2-1.1,3.6-1.1c3.4,0,4.2,2.6,4.2,5.1v4.6c0,1.1,0,2.1,0.2,3H480.6z M480.3,51.6
		c-2.2-0.1-4.7,0.4-4.7,2.8c0,1.5,0.9,2.1,1.9,2.1c1.4,0,2.4-1,2.7-2.1c0.1-0.2,0.1-0.5,0.1-0.7V51.6z"/>
	<path d="M487.8,42v3.5h2.9v1.7h-2.9v6.7c0,1.5,0.4,2.4,1.5,2.4c0.5,0,0.9-0.1,1.2-0.2l0.1,1.7c-0.4,0.2-1,0.3-1.8,0.3
		c-0.9,0-1.7-0.3-2.2-0.9c-0.6-0.7-0.8-1.8-0.8-3.2v-6.7h-1.7v-1.7h1.7v-3L487.8,42z"/>
	<path d="M493.9,52.1c0,3,1.8,4.3,3.8,4.3c1.4,0,2.3-0.3,3.1-0.6l0.3,1.6c-0.7,0.4-1.9,0.8-3.7,0.8c-3.4,0-5.4-2.5-5.4-6.2
		c0-3.7,2-6.7,5.2-6.7c3.6,0,4.6,3.5,4.6,5.8c0,0.5,0,0.8-0.1,1H493.9z M499.8,50.5c0-1.4-0.5-3.6-2.8-3.6c-2,0-2.9,2.1-3.1,3.6
		H499.8z"/>
	<path d="M513.8,45.6c0,0.9-0.1,1.9-0.1,3.4v7.2c0,2.8-0.5,4.6-1.6,5.6c-1.1,1.1-2.6,1.5-4,1.5c-1.3,0-2.8-0.4-3.7-1l0.5-1.7
		c0.7,0.5,1.9,1,3.2,1c2.1,0,3.6-1.2,3.6-4.3v-1.4h0c-0.6,1.1-1.8,2.1-3.5,2.1c-2.7,0-4.7-2.6-4.7-6c0-4.2,2.4-6.6,5-6.6
		c1.9,0,3,1.1,3.5,2.1h0l0.1-1.9H513.8z M511.7,50.4c0-0.4,0-0.7-0.1-1c-0.4-1.3-1.3-2.4-2.8-2.4c-1.9,0-3.3,1.8-3.3,4.7
		c0,2.4,1.1,4.4,3.3,4.4c1.2,0,2.4-0.9,2.8-2.3c0.1-0.4,0.2-0.8,0.2-1.2V50.4z"/>
	<path d="M527,51.6c0,4.6-2.8,6.6-5.5,6.6c-3,0-5.3-2.4-5.3-6.4c0-4.1,2.4-6.6,5.5-6.6C524.9,45.3,527,47.9,527,51.6z M518.2,51.8
		c0,2.7,1.4,4.7,3.4,4.7c1.9,0,3.4-2,3.4-4.8c0-2.1-0.9-4.7-3.3-4.7S518.2,49.4,518.2,51.8z"/>
	<path d="M529.6,49.4c0-1.5,0-2.7-0.1-3.9h1.8l0.1,2.4h0.1c0.5-1.7,1.7-2.7,3.1-2.7c0.2,0,0.4,0,0.6,0.1v2.1
		c-0.2-0.1-0.4-0.1-0.7-0.1c-1.4,0-2.4,1.2-2.7,2.9c0,0.3-0.1,0.7-0.1,1v6.6h-2V49.4z"/>
	<path d="M538.3,45.6l2.4,7.3c0.3,0.8,0.5,1.8,0.7,2.5h0c0.2-0.7,0.4-1.7,0.7-2.6l2.2-7.2h2.1l-3,8.8c-1.4,4.2-2.4,6.4-3.8,7.7
		c-1,1-2,1.4-2.5,1.5l-0.5-1.9c0.5-0.2,1.2-0.5,1.8-1.1c0.5-0.5,1.2-1.4,1.7-2.5c0.1-0.2,0.2-0.4,0.2-0.5c0-0.1,0-0.3-0.1-0.6
		l-4.1-11.4H538.3z"/>
</g>
<rect x="119.6" y="38.5" class="st2" width="135.7" height="23.4"/>
<g class="st3">
	<path d="M132,56.1c-0.7,0.4-2.2,0.8-4.1,0.8c-4.3,0-7.6-3.1-7.6-8.7c0-5.4,3.3-9,8-9c1.9,0,3.1,0.5,3.7,0.8l-0.5,1.8
		c-0.8-0.4-1.8-0.7-3.1-0.7c-3.6,0-6,2.6-6,7.1c0,4.2,2.2,6.9,5.9,6.9c1.2,0,2.4-0.3,3.2-0.7L132,56.1z"/>
	<path d="M140.4,56.6l-0.2-1.6h-0.1c-0.6,1-1.8,1.8-3.4,1.8c-2.2,0-3.4-1.8-3.4-3.5c0-3,2.4-4.6,6.7-4.6v-0.3c0-1-0.3-2.9-2.5-2.9
		c-1,0-2.1,0.4-2.9,0.9l-0.5-1.5c0.9-0.7,2.2-1.1,3.6-1.1c3.4,0,4.2,2.6,4.2,5.1v4.6c0,1.1,0,2.1,0.2,3H140.4z M140.1,50.3
		c-2.2-0.1-4.7,0.4-4.7,2.8c0,1.5,0.9,2.1,1.9,2.1c1.4,0,2.4-1,2.7-2.1c0.1-0.2,0.1-0.5,0.1-0.7V50.3z"/>
	<path d="M147.7,40.7v3.5h2.9V46h-2.9v6.7c0,1.5,0.4,2.4,1.5,2.4c0.5,0,0.9-0.1,1.2-0.2l0.1,1.7c-0.4,0.2-1,0.3-1.8,0.3
		c-0.9,0-1.7-0.3-2.2-0.9c-0.6-0.7-0.8-1.8-0.8-3.2V46H144v-1.7h1.7v-3L147.7,40.7z"/>
	<path d="M153.8,50.9c0,3,1.8,4.3,3.8,4.3c1.4,0,2.3-0.3,3.1-0.6l0.3,1.6c-0.7,0.4-1.9,0.8-3.7,0.8c-3.4,0-5.4-2.5-5.4-6.2
		c0-3.7,2-6.7,5.2-6.7c3.6,0,4.6,3.5,4.6,5.8c0,0.5,0,0.8-0.1,1H153.8z M159.7,49.3c0-1.4-0.5-3.6-2.8-3.6c-2,0-2.9,2.1-3.1,3.6
		H159.7z"/>
	<path d="M173.6,44.3c0,0.9-0.1,1.9-0.1,3.4v7.2c0,2.8-0.5,4.6-1.6,5.6c-1.1,1.1-2.6,1.5-4,1.5c-1.3,0-2.8-0.4-3.7-1l0.5-1.7
		c0.7,0.5,1.9,1,3.2,1c2.1,0,3.6-1.2,3.6-4.3v-1.4h0c-0.6,1.1-1.8,2.1-3.5,2.1c-2.7,0-4.7-2.6-4.7-6c0-4.2,2.4-6.6,5-6.6
		c1.9,0,3,1.1,3.5,2.1h0l0.1-1.9H173.6z M171.6,49.2c0-0.4,0-0.7-0.1-1c-0.4-1.3-1.3-2.4-2.8-2.4c-1.9,0-3.3,1.8-3.3,4.7
		c0,2.4,1.1,4.4,3.3,4.4c1.2,0,2.4-0.9,2.8-2.3c0.1-0.4,0.2-0.8,0.2-1.2V49.2z"/>
	<path d="M186.9,50.4c0,4.6-2.8,6.6-5.5,6.6c-3,0-5.3-2.4-5.3-6.4c0-4.1,2.4-6.6,5.5-6.6C184.8,44,186.9,46.6,186.9,50.4z
		 M178.1,50.5c0,2.7,1.4,4.7,3.4,4.7c1.9,0,3.4-2,3.4-4.8c0-2.1-0.9-4.7-3.3-4.7S178.1,48.1,178.1,50.5z"/>
	<path d="M189.4,48.1c0-1.5,0-2.7-0.1-3.9h1.8l0.1,2.4h0.1c0.5-1.7,1.7-2.7,3.1-2.7c0.2,0,0.4,0,0.6,0.1v2.1
		c-0.2-0.1-0.4-0.1-0.7-0.1c-1.4,0-2.4,1.2-2.7,2.9c0,0.3-0.1,0.7-0.1,1v6.6h-2V48.1z"/>
	<path d="M199.2,40.8c0,0.8-0.5,1.4-1.3,1.4c-0.7,0-1.2-0.6-1.2-1.4c0-0.8,0.5-1.4,1.3-1.4C198.8,39.4,199.2,40,199.2,40.8z
		 M197,56.6V44.3h2v12.3H197z"/>
	<path d="M203.5,50.9c0,3,1.8,4.3,3.8,4.3c1.4,0,2.3-0.3,3.1-0.6l0.3,1.6c-0.7,0.4-1.9,0.8-3.7,0.8c-3.4,0-5.4-2.5-5.4-6.2
		c0-3.7,2-6.7,5.2-6.7c3.6,0,4.6,3.5,4.6,5.8c0,0.5,0,0.8-0.1,1H203.5z M209.4,49.3c0-1.4-0.5-3.6-2.8-3.6c-2,0-2.9,2.1-3.1,3.6
		H209.4z"/>
	<path d="M213.5,54.3c0.6,0.4,1.6,0.9,2.7,0.9c1.5,0,2.1-0.8,2.1-1.8c0-1.1-0.6-1.7-2.1-2.3c-2-0.8-2.9-2-2.9-3.5
		c0-2,1.4-3.6,3.8-3.6c1.1,0,2.1,0.4,2.7,0.8l-0.5,1.6c-0.4-0.3-1.2-0.7-2.3-0.7c-1.2,0-1.9,0.8-1.9,1.7c0,1,0.7,1.5,2.1,2.1
		c1.9,0.8,2.9,1.9,2.9,3.7c0,2.2-1.5,3.7-4.1,3.7c-1.2,0-2.3-0.3-3.1-0.8L213.5,54.3z"/>
</g>
<line class="st1" x1="443.2" y1="216.3" x2="443.2" y2="245.9"/>
<line class="st1" x1="203.1" y1="244.2" x2="202.5" y2="275.4"/>
<polyline class="st5" points="162.7,118.7 173.3,136.7 183.6,119 "/>
<path class="st6" d="M162.2,275.7"/>
<path class="st6" d="M162.2,216.3"/>
<line class="st1" x1="162.6" y1="214.2" x2="162.6" y2="273.5"/>
<polyline class="st5" points="151.6,257 162.2,275.7 172.9,256.7 "/>
<polyline class="st5" points="325.3,323.6 344,312.9 325,302.3 "/>
<polyline class="st5" points="327.1,195 345.7,184.4 326.7,173.7 "/>
<polyline class="st5" points="326.3,64.7 345,54.1 326,43.4 "/>
<polyline class="st5" points="191.8,258.6 202.5,277.2 213.2,258.3 "/>
<g>
	<line class="st1" x1="470.2" y1="215.7" x2="470.2" y2="275"/>
	<line class="st1" x1="470.2" y1="212" x2="470.2" y2="271.3"/>
	<polyline class="st1" points="459.5,256.4 470.2,275 481.9,255.6 	"/>
</g>
<line class="st1" x1="345.1" y1="165.9" x2="291.8" y2="166.9"/>
<line class="st1" x1="189.2" y1="140.7" x2="190" y2="86.7"/>
<line class="st5" x1="190.5" y1="85" x2="179.4" y2="104.2"/>
<line class="st5" x1="200.3" y1="104.9" x2="190.5" y2="85"/>
<rect x="-83.4" y="-114.2" class="st7" width="790" height="609"/>
<polyline class="st5" points="307.7,156.1 288.7,166.8 307.3,177.4 "/>
</svg>
