<?xml version="1.0" encoding="utf-8"?>
<!-- Generator: Adobe Illustrator 21.1.0, SVG Export Plug-In . SVG Version: 6.00 Build 0)  -->
<svg version="1.1" id="Layer_1" xmlns="http://www.w3.org/2000/svg" xmlns:xlink="http://www.w3.org/1999/xlink" x="0px" y="0px"
	 viewBox="0 0 1920 1080" style="enable-background:new 0 0 1920 1080;" xml:space="preserve">
<style type="text/css">
	.st0{fill:#FFFFFF;stroke:#231F20;stroke-miterlimit:10;}
	.st1{fill:none;}
	.st2{fill:#318942;}
	.st3{font-family:'EspritStd-Book';}
	.st4{font-size:388.5631px;}
	.st5{fill:#EB008B;}
	.st6{font-family:'EspritStd-Medium';}
	.st7{font-size:273.2152px;}
	.st8{letter-spacing:-17.5;}
	.st9{letter-spacing:6;}
</style>
<rect x="-2.8" y="-5.7" class="st0" width="1921.3" height="1086.6"/>
<rect x="256.9" y="460" class="st1" width="1394.9" height="316.3"/>
<text transform="matrix(1 0 0 1 281.564 744.0332)" class="st2 st3 st4">Flowers</text>
<rect x="589.1" y="335.4" class="st1" width="853.7" height="221.8"/>
<text transform="matrix(0.9244 0 0 1 672.3936 535.1597)" class="st5 st6 st7">Fina</text>
<text transform="matrix(0.97 0 0 1 1191.627 535.1597)" class="st5 st6 st7 st8">’</text>
<text transform="matrix(1 0 0 1 1238.2695 535.1597)" class="st5 st6 st7 st9">s</text>
<path id="bottom" class="st5" d="M1389.4,382.7c0,0,42-13.5,107.3,9.2c0,0,13.5,0.5,63.1,38.8c0,0-32.4,37.2-93.9,18.9
	C1404.5,431.2,1390.5,405.9,1389.4,382.7z"/>
<path id="midle_peddal" class="st5" d="M1574.5,360.9c-1.6-0.3-10.3,22.7-49.9,37.1c0,0-4.4-1.2-8-3.4c-0.2-0.1-0.4-0.2-0.6-0.4
	c-0.7-0.4-1.5-0.9-2.4-1.4c-0.1-0.1-0.2-0.1-0.3-0.2c-0.3-0.2-0.5-0.3-0.8-0.5c-0.1-0.1-0.3-0.1-0.4-0.2c-0.3-0.2-0.6-0.3-0.8-0.5
	c-0.3-0.1-0.5-0.3-0.8-0.4c-0.1-0.1-0.3-0.1-0.4-0.2c-0.1-0.1-0.3-0.2-0.4-0.2c-1-0.5-2-1-3-1.5c-0.3-0.2-0.7-0.3-1-0.5
	c-0.2-0.1-0.5-0.2-0.7-0.3c-0.2-0.1-0.4-0.2-0.6-0.3c-0.6-0.3-1.2-0.6-1.9-0.8c-0.2-0.1-0.4-0.2-0.6-0.3c-0.2-0.1-0.4-0.2-0.7-0.3
	c-0.2-0.1-0.4-0.2-0.7-0.3c-0.1,0-0.2-0.1-0.3-0.1c-0.2-0.1-0.3-0.1-0.5-0.2c-0.5-0.2-1-0.4-1.5-0.6h0c-0.3-0.1-0.7-0.3-1-0.4
	c-0.3-0.1-0.7-0.3-1-0.4c-0.7-0.3-1.4-0.5-2.2-0.8c-0.2-0.1-0.4-0.1-0.6-0.2c-0.6-0.2-1.1-0.4-1.7-0.6c-0.4-0.1-0.7-0.3-1.1-0.4
	c-0.2-0.1-0.4-0.1-0.6-0.2c-0.2-0.1-0.4-0.1-0.6-0.2c-1-0.3-2-0.6-3-0.9c-0.2-0.1-0.4-0.1-0.6-0.2c-0.8-0.2-1.7-0.5-2.5-0.7
	c-0.2-0.1-0.4-0.1-0.6-0.2c-0.2-0.1-0.4-0.1-0.6-0.2c-0.2-0.1-0.4-0.1-0.7-0.2c0,0-0.1,0-0.1,0c-0.4-0.1-0.8-0.2-1.2-0.3
	c0,0,0,0-0.1,0c-0.2-0.1-0.4-0.1-0.7-0.2c-0.4-0.1-0.7-0.2-1.1-0.3c-0.3-0.1-0.5-0.1-0.8-0.2c-0.1,0-0.1,0-0.2,0
	c-0.8-0.2-1.6-0.4-2.4-0.5c0,0,0,0,0,0c-0.3-0.1-0.6-0.1-0.8-0.2c-0.3-0.1-0.5-0.1-0.8-0.2c-0.1,0-0.2,0-0.2,0
	c-0.5-0.1-1-0.2-1.4-0.3c-0.2,0-0.5-0.1-0.7-0.1c-0.2,0-0.3-0.1-0.5-0.1c-0.2,0-0.5-0.1-0.7-0.1c-0.3-0.1-0.6-0.1-0.8-0.2
	c-0.1,0-0.1,0-0.2,0c-1.1-0.2-2.3-0.4-3.4-0.6c0,0,0,0-0.1,0c-0.3,0-0.6-0.1-0.9-0.1c-0.3,0-0.6-0.1-0.9-0.1c-0.3,0-0.6-0.1-0.9-0.1
	c-0.3,0-0.6-0.1-1-0.1c-0.3,0-0.6-0.1-0.9-0.1c-0.3,0-0.6-0.1-1-0.1c-0.3,0-0.6-0.1-1-0.1c0,0,25.4-11.9,42.6-30.7c0,0,0.2,0,0.5,0
	c0,0,0,0,0.1,0c0.1,0,0.3,0,0.5,0c0,0,0.1,0,0.1,0c0.1,0,0.3,0,0.4,0c0.1,0,0.1,0,0.2,0h0c0,0,0.1,0,0.1,0h0c0.1,0,0.2,0,0.3,0
	c0.1,0,0.1,0,0.2,0c0.1,0,0.2,0,0.3,0c0,0,0.1,0,0.1,0c0,0,0.1,0,0.2,0c0.4,0,0.9,0,1.4,0.1c0.1,0,0.2,0,0.3,0h0c0.1,0,0.2,0,0.4,0
	c0.4,0,0.9,0.1,1.3,0.1c0.2,0,0.4,0,0.6,0c0.2,0,0.3,0,0.5,0c0.2,0,0.5,0,0.7,0c0.9,0.1,1.9,0.1,3,0.2c1.3,0.1,2.8,0.2,4.3,0.4
	c0.3,0,0.7,0.1,1.1,0.1c0.2,0,0.4,0,0.6,0.1c0.4,0,0.8,0.1,1.2,0.1c0.3,0,0.5,0.1,0.8,0.1c0.2,0,0.4,0,0.7,0.1
	c0.9,0.1,1.9,0.2,2.9,0.3c0.6,0.1,1.3,0.1,1.9,0.2c0.2,0,0.4,0.1,0.6,0.1c0.5,0.1,1,0.1,1.5,0.2c0.5,0.1,0.9,0.1,1.4,0.2
	c2.5,0.3,5,0.7,7.6,1.1c0.7,0.1,1.4,0.2,2.2,0.4c0.3,0,0.5,0.1,0.8,0.1c0.3,0,0.5,0.1,0.8,0.1c0.5,0.1,1,0.2,1.5,0.3
	c0.3,0.1,0.5,0.1,0.8,0.2c0.5,0.1,1,0.2,1.5,0.3c0.3,0.1,0.5,0.1,0.8,0.2c0.2,0.1,0.5,0.1,0.7,0.2c0.2,0.1,0.5,0.1,0.7,0.2
	c0,0,0,0,0,0c0.2,0.1,0.5,0.1,0.7,0.2c0.2,0.1,0.5,0.1,0.7,0.2c0.5,0.1,1,0.2,1.5,0.4c0.2,0.1,0.5,0.1,0.7,0.2
	c0.5,0.1,1,0.2,1.5,0.4c0.2,0.1,0.5,0.1,0.7,0.2c0.2,0.1,0.5,0.1,0.7,0.2c0.6,0.2,1.2,0.3,1.8,0.5c1.1,0.3,2.1,0.6,3.1,1
	c0.1,0,0.2,0.1,0.3,0.1c0.5,0.1,0.9,0.3,1.3,0.5c0.1,0,0.2,0.1,0.3,0.1c0.1,0,0.2,0.1,0.3,0.1c0.1,0,0.2,0.1,0.3,0.1
	c0.2,0.1,0.4,0.2,0.6,0.2c0.1,0,0.2,0.1,0.3,0.1c0.1,0,0.2,0.1,0.3,0.1c0.1,0,0.2,0.1,0.3,0.1c0.1,0,0.2,0.1,0.3,0.1
	c0.1,0,0.2,0.1,0.3,0.1c1.5,0.6,2.9,1.2,4.3,1.9c0.2,0.1,0.3,0.2,0.5,0.2c0,0,0.1,0,0.1,0c0.2,0.1,0.4,0.2,0.5,0.3
	c0.1,0,0.1,0.1,0.2,0.1c0.1,0,0.2,0.1,0.3,0.1C1570.1,358.7,1573.4,360.1,1574.5,360.9z"/>
<path id="top" class="st5" d="M1522,307.9c0,0-80.2-26.6-132.6,68.3c0,0,29.7-7,58.3-2.7C1447.7,373.5,1482.5,361.4,1522,307.9z"/>
<path id="stem" class="st2" d="M1389.8,382.1c0,0-18.3,27.8-10.4,72.9c7.9,44.8,58.8,73.1,62.9,73.1s6.8-13.5,6.8-13.5
	s-70.8-46-47.3-100C1401.8,414.6,1388.5,396.2,1389.8,382.1z"/>
<path id="leave" class="st2" d="M1590.7,436.6c-8.6,71.8-62.1,90.1-62.1,90.1c-60.4,21.1-89.3,0.3-89.3,0.3
	c-4.6-36.1,14.2-69.4,14.2-69.4c2.1-3.4,3.2-4.6,3.2-4.6c76.8,24.3,111.3-21.8,111.3-21.8c0-1.3-6.4-7.7-6.4-7.7
	c26.9-12.8,23-30.7,23-30.7c-6.4-10.2-20.5-11.5-20.5-11.5c10.2-7.7,17.9-20.5,17.9-20.5c-10.5-11.5-38.9-17-48.9-18.7
	c31.8-39,49.6-50.4,54-52.8c-0.1,3.4,1,14.2,6.4,45.1C1601.3,392.8,1590.7,436.6,1590.7,436.6z"/>
<path id="topsmall" class="st5" d="M1520.8,322.5l-16.6,16.6c15.4,0,23,2.6,23,2.6l14.1-17.9
	C1541.2,323.8,1529.7,321.2,1520.8,322.5z"/>
<path id="bottom_small" class="st5" d="M1579.6,395.4c-0.6,2.8-2.3,5.8-4.1,8.3c-3.1,5.9-10.1,12.7-20,14.9l-21.9-16.8
	c0,0,16.6-5.1,26.8-15.5l0,0c0,0,6.5,0.2,11.6,2.7S1579.6,395.4,1579.6,395.4z"/>
</svg>
