<svg xmlns="http://www.w3.org/2000/svg"><symbol id="home-32-new" viewBox="0 0 31.7 31.7"><path fill="#333" d="M14.7.6L.3 11.2h30.5L14.7.6z"/><path fill="#fff" d="M.3 11.6h30.2v15.3H.3z"/><path fill="#333" d="M12.4 14.7h5.8v12.1h-5.8zm-7.2-11h2.7V9H5.2z"/><path stroke="#fff" stroke-miterlimit="10" stroke-width=".25" d="M3 14.8h2.7v2.7H3zm3.2 0h2.7v2.7H6.2zm-3.1 3.1h2.7v2.7H3.1zm3.1 0h2.7v2.7H6.2zm15.9-3.1h2.7v2.7h-2.7zm3.2 0H28v2.7h-2.7zm-3.1 3.1h2.7v2.7h-2.7zm3.1.1H28v2.7h-2.7z"/></symbol></svg>