<svg xmlns="http://www.w3.org/2000/svg" width="4.2in" height="4in" data-name="Layer 1" viewBox="0 0 299.5 289.3"><rect width="299.5" height="289.3" x=".6" fill="#ed1c24" rx="32.2" ry="32.2"/><circle cx="71.9" cy="70.9" r="22.4" fill="#fff"/><path fill="#fff" d="M51.3 106.7v130.7h43.5V106.2l-43.5.5zm67.6 0V238h43.6v-78.7c0-10.2 13-20.8 22.8-21.3 12.2-.6 21.5 11 22.6 22.2.6 5.8 1.4 77.2 1.6 77.2h41.8c0-21.4.6-42.7.3-64.1-.2-11.7-.3-21.8-4.6-32.6-6.3-15.4-17-31.7-34-36-7.3-1.8-14.9-1.1-22.1 1.1a69 69 0 0 0-13.8 6.2c-2.2 1.3-14.6 7.8-14.6 10.2v-15.5z"/></svg>