<?xml version="1.0" encoding="utf-8"?>
<!-- Generator: Adobe Illustrator 21.1.0, SVG Export Plug-In . SVG Version: 6.00 Build 0)  -->
<svg version="1.1" id="Layer_1" xmlns="http://www.w3.org/2000/svg" xmlns:xlink="http://www.w3.org/1999/xlink" x="0px" y="0px"
	 viewBox="0 0 64 64" style="enable-background:new 0 0 64 64;" xml:space="preserve">
<style type="text/css">
	.st0{fill:#020202;}
	.st1{fill:#FFFFFF;}
	.st2{fill:#FFFFFF;stroke:#231F20;stroke-width:0.75;stroke-miterlimit:10;}
	.st3{fill:#6D6C6D;}
</style>
<g id="logo-16">
</g>
<circle class="st0" cx="32.1" cy="32.3" r="31.2"/>
<path class="st1" d="M28.2,29.2c0,0-11.2-0.8-16.3-9.3s2.3-11.4,6.2-9.1c0,0-1.9-12,10.1-5.8c0,0,5.6,1,5.2,21.3L28.2,29.2z"/>
<path class="st2" d="M31.3,36.4c0,0-6.2,10.3-16.9,10.9c-10.9,0.6-9.9-7.8-6-10.3c0,0-12.6-4.1-0.6-12.4c0,0,3.5-4.8,23.3,5.6
	L31.3,36.4z"/>
<path class="st1" d="M36.2,37.5c0,0,7.8,5.6,7,15.9s-8.5,8.7-10.1,4.8c0,0-8.3,7.6-11.6-0.8c0,0-1.2-11.4,8.9-20L36.2,37.5z"/>
<path class="st2" d="M34.6,26.9c0,0-4.1-10.9,1-19S46.1,6,45.9,10.4c0,0,9.3-6.2,9.1,7.6c0,0,1.4,5.6-15.9,12.6L34.6,26.9z"/>
<path class="st1" d="M38.7,31.7c0,0,8.7-6,17.8-2.3s4.5,10.3,0,10.9c0,0,8.5,8.5-5.4,10.7c0,0-9.5-2.1-14.7-14.7L38.7,31.7z"/>
<ellipse transform="matrix(0.866 -0.5 0.5 0.866 -12.3777 17.9939)" class="st3" cx="27.4" cy="32.1" rx="1.4" ry="1.4"/>
<ellipse transform="matrix(0.866 -0.5 0.5 0.866 -8.0364 19.3593)" class="st3" cx="32.1" cy="24.7" rx="1.4" ry="1.4"/>
<ellipse transform="matrix(0.866 -0.5 0.5 0.866 -8.9812 21.9041)" class="st3" cx="36.4" cy="27.7" rx="1.4" ry="1.4"/>
<ellipse transform="matrix(0.866 -0.5 0.5 0.866 -13.7551 19.44)" class="st3" cx="29.4" cy="35.4" rx="1.4" ry="1.4"/>
<ellipse transform="matrix(0.866 -0.5 0.5 0.866 -11.1648 21.7507)" class="st3" cx="35" cy="31.7" rx="1.4" ry="1.4"/>
<ellipse transform="matrix(0.866 -0.5 0.5 0.866 -12.8011 21.2714)" class="st3" cx="33.3" cy="34.5" rx="1.4" ry="1.4"/>
<ellipse transform="matrix(0.866 -0.5 0.5 0.866 -9.8998 20.2293)" class="st3" cx="32.8" cy="28.6" rx="1.4" ry="1.4"/>
<ellipse transform="matrix(0.866 -0.5 0.5 0.866 -11.3064 19.2166)" class="st3" cx="30.2" cy="30.7" rx="1.4" ry="1.4"/>
<ellipse transform="matrix(0.866 -0.5 0.5 0.866 -9.358 18.0463)" class="st3" cx="29" cy="26.5" rx="1.4" ry="1.4"/>
</svg>
