<?xml version="1.0" encoding="utf-8"?>
<!-- Generator: Adobe Illustrator 21.1.0, SVG Export Plug-In . SVG Version: 6.00 Build 0)  -->
<svg version="1.1" id="Layer_1" xmlns="http://www.w3.org/2000/svg" xmlns:xlink="http://www.w3.org/1999/xlink" x="0px" y="0px"
	 viewBox="0 0 256 256" style="enable-background:new 0 0 256 256;" xml:space="preserve">
<style type="text/css">
	.st0{fill:#020202;}
	.st1{fill:#FFFFFF;}
	.st2{fill:#FFFFFF;stroke:#231F20;stroke-width:0.75;stroke-miterlimit:10;}
	.st3{fill:#6D6C6D;}
</style>
<g id="logo-16">
</g>
<circle class="st0" cx="127.7" cy="127.9" r="124"/>
<path class="st1" d="M112.1,115.5c0,0-44.3-3.3-64.9-36.9s9-45.2,24.6-36.1c0,0-7.4-47.6,40.2-23c0,0,22.2,4.1,20.5,84.6
	L112.1,115.5z"/>
<path class="st2" d="M124.4,144.3c0,0-24.6,41.1-67.3,43.5c-43.5,2.5-39.4-31.2-23.8-41.1c0,0-50.1-16.4-2.5-49.3
	c0,0,14-18.9,92.8,22.2L124.4,144.3z"/>
<path class="st1" d="M144.1,148.4c0,0,31.2,22.2,27.9,63.2s-33.7,34.5-40.2,18.9c0,0-32.8,30.4-46-3.3c0,0-4.9-45.2,35.3-79.6
	L144.1,148.4z"/>
<path class="st2" d="M137.5,106.5c0,0-16.4-43.5,4.1-75.5s41.9-7.4,41.1,9.9c0,0,36.9-24.6,36.1,30.4c0,0,5.7,22.2-63.2,50.1
	L137.5,106.5z"/>
<path class="st1" d="M153.9,125.4c0,0,34.5-23.8,70.6-9s18.1,41.1,0,43.5c0,0,33.7,33.7-21.3,42.7c0,0-37.8-8.2-58.3-58.3
	L153.9,125.4z"/>
<ellipse transform="matrix(0.866 -0.5 0.5 0.866 -48.9546 71.4759)" class="st3" cx="108.9" cy="127.1" rx="5.7" ry="5.7"/>
<ellipse transform="matrix(0.866 -0.5 0.5 0.866 -31.6602 76.8108)" class="st3" cx="127.5" cy="97.5" rx="5.7" ry="5.7"/>
<ellipse transform="matrix(0.866 -0.5 0.5 0.866 -35.4459 87.0971)" class="st3" cx="144.8" cy="109.7" rx="5.7" ry="5.7"/>
<ellipse transform="matrix(0.866 -0.5 0.5 0.866 -54.4547 77.1858)" class="st3" cx="116.8" cy="140.2" rx="5.7" ry="5.7"/>
<ellipse transform="matrix(0.866 -0.5 0.5 0.866 -44.1089 86.4143)" class="st3" cx="139.2" cy="125.5" rx="5.7" ry="5.7"/>
<ellipse transform="matrix(0.866 -0.5 0.5 0.866 -50.5802 84.618)" class="st3" cx="132.6" cy="136.7" rx="5.7" ry="5.7"/>
<ellipse transform="matrix(0.866 -0.5 0.5 0.866 -39.0916 80.2965)" class="st3" cx="130.3" cy="113.1" rx="5.7" ry="5.7"/>
<ellipse transform="matrix(0.866 -0.5 0.5 0.866 -44.6662 76.327)" class="st3" cx="120.1" cy="121.5" rx="5.7" ry="5.7"/>
<ellipse transform="matrix(0.866 -0.5 0.5 0.866 -36.9651 71.6407)" class="st3" cx="115.2" cy="104.8" rx="5.7" ry="5.7"/>
</svg>
