<?xml version="1.0" encoding="utf-8"?>
<!-- Generator: Adobe Illustrator 22.0.1, SVG Export Plug-In . SVG Version: 6.00 Build 0)  -->
<svg version="1.1" id="Layer_1" xmlns="http://www.w3.org/2000/svg" xmlns:xlink="http://www.w3.org/1999/xlink" x="0px" y="0px"
	 viewBox="0 0 31.7 31.7" style="enable-background:new 0 0 31.7 31.7;" xml:space="preserve">
<style type="text/css">
	.st0{fill:#FFFFFF;}
</style>
<title>logo-32</title>
<path class="st0" d="M31.1,2.3l-0.9,1.8c-2.2-0.7-5.4,1.6-6.8,4.5c-0.6,1.2-3.1,7.7-3.9,9.7c-0.1,0.2-0.4,0.2-0.4,0
	c-0.8-2.5-3.7-11.9-3.7-11.9c-0.3,0.7-3.8,7.7-4.7,9.4C9,19.2,7,22.1,4.2,22c-2.6,0-3.6-1.7-3.5-3.8c0.6,1.2,2,1.6,3.5,1.7
	C6.3,20,7.7,18,9.4,15.4c1-1.7,5.7-10.4,6.5-12.1c0-0.1,0.3-0.1,0.3,0L19.5,15c0.1-0.4,1.2-2.9,1.8-4.7C23.4,4.3,27.3,1,31.1,2.3z"
	/>
<path class="st0" d="M17.5,18.9l-2.4-8.6c0-0.1-0.2-0.2-0.3,0c-0.5,1.1-2.1,4.3-3.4,6.7C7.3,15.2,1,14,0.3,19.6c0,0-1.2,5.9,3.2,6.5
	c3.3,0.5,5.5-1.5,8.1-6.8c1.7,0.6,3.4,1.2,5,1.5c0,0,1.4,4.8,1.5,4.8s0.8-2.4,0.8-2.4L18.2,21c0,0,8.9,1.8,13-3.7
	C31.1,17,24.5,20.7,17.5,18.9z M4,23.9c-2.2,0-3.5-1.7-3.4-3.9s4.3-4.4,9.8-1.3C8.5,22.9,6.3,24.1,4,23.9z M12.5,17.4
	c0.8-1.6,1.4-2.9,1.8-4l1.6,5.2C14.8,18.2,13.5,17.9,12.5,17.4z"/>
</svg>
