<?xml version="1.0" encoding="utf-8"?>
<!-- Generator: Adobe Illustrator 21.1.0, SVG Export Plug-In . SVG Version: 6.00 Build 0)  -->
<svg version="1.1" id="Layer_1" xmlns="http://www.w3.org/2000/svg" xmlns:xlink="http://www.w3.org/1999/xlink" x="0px" y="0px"
	 viewBox="0 0 31.7 31.7" style="enable-background:new 0 0 31.7 31.7;" xml:space="preserve">
<style type="text/css">
	.st0{fill:#020202;}
	.st1{fill:#FFFFFF;}
	.st2{fill:#FFFFFF;stroke:#231F20;stroke-width:0.75;stroke-miterlimit:10;}
	.st3{fill:#6D6C6D;}
</style>
<g id="logo-16">
</g>
<circle class="st0" cx="16" cy="15.6" r="15.1"/>
<path class="st1" d="M14.1,14.1c0,0-5.4-0.4-7.9-4.5s1.1-5.5,3-4.4c0,0-0.9-5.8,4.9-2.8c0,0,2.7,0.5,2.5,10.3L14.1,14.1z"/>
<path class="st2" d="M15.6,17.6c0,0-3,5-8.2,5.3c-5.3,0.3-4.8-3.8-2.9-5c0,0-6.1-2-0.3-6c0,0,1.7-2.3,11.3,2.7L15.6,17.6z"/>
<path class="st1" d="M18,18.1c0,0,3.8,2.7,3.4,7.7s-4.1,4.2-4.9,2.3c0,0-4,3.7-5.6-0.4c0,0-0.6-5.5,4.3-9.7L18,18.1z"/>
<path class="st2" d="M17.2,13c0,0-2-5.3,0.5-9.2s5.1-0.9,5,1.2c0,0,4.5-3,4.4,3.7c0,0,0.7,2.7-7.7,6.1L17.2,13z"/>
<path class="st1" d="M19.2,15.3c0,0,4.2-2.9,8.6-1.1s2.2,5,0,5.3c0,0,4.1,4.1-2.6,5.2c0,0-4.6-1-7.1-7.1L19.2,15.3z"/>
<ellipse transform="matrix(0.866 -0.5 0.5 0.866 -5.919 8.9348)" class="st3" cx="13.7" cy="15.5" rx="0.7" ry="0.7"/>
<ellipse transform="matrix(0.866 -0.5 0.5 0.866 -3.8137 9.5837)" class="st3" cx="16" cy="11.9" rx="0.7" ry="0.7"/>
<ellipse transform="matrix(0.866 -0.5 0.5 0.866 -4.2726 10.8364)" class="st3" cx="18.1" cy="13.4" rx="0.7" ry="0.7"/>
<ellipse transform="matrix(0.866 -0.5 0.5 0.866 -6.5834 9.6297)" class="st3" cx="14.7" cy="17.1" rx="0.7" ry="0.7"/>
<ellipse transform="matrix(0.866 -0.5 0.5 0.866 -5.321 10.7559)" class="st3" cx="17.4" cy="15.3" rx="0.7" ry="0.7"/>
<ellipse transform="matrix(0.866 -0.5 0.5 0.866 -6.1152 10.5326)" class="st3" cx="16.6" cy="16.7" rx="0.7" ry="0.7"/>
<ellipse transform="matrix(0.866 -0.5 0.5 0.866 -4.7165 10.012)" class="st3" cx="16.3" cy="13.8" rx="0.7" ry="0.7"/>
<ellipse transform="matrix(0.866 -0.5 0.5 0.866 -5.3901 9.5277)" class="st3" cx="15.1" cy="14.8" rx="0.7" ry="0.7"/>
<ellipse transform="matrix(0.866 -0.5 0.5 0.866 -4.4558 8.9547)" class="st3" cx="14.5" cy="12.8" rx="0.7" ry="0.7"/>
</svg>
