<?xml version="1.0" encoding="utf-8"?>
<!-- Generator: Adobe Illustrator 21.1.0, SVG Export Plug-In . SVG Version: 6.00 Build 0)  -->
<svg version="1.1" id="Layer_1" xmlns="http://www.w3.org/2000/svg" xmlns:xlink="http://www.w3.org/1999/xlink" x="0px" y="0px"
	 viewBox="0 0 31.7 31.7" style="enable-background:new 0 0 31.7 31.7;" xml:space="preserve">
<style type="text/css">
	.st0{fill:#A01D21;}
	.st1{fill:none;}
</style>
<path class="st0" d="M17.9,18.2C17.9,18.2,17.9,18.2,17.9,18.2c-0.2,0.6-0.4,1.1-0.6,1.6c5.9,0.3,11.3-1.7,14-5
	C31.3,14.8,24.4,18.3,17.9,18.2z"/>
<path d="M26.9,7.4L26.1,9c-1.9-0.6-4,0.7-5.4,2.7c-0.8,1.1-2,4-2.8,6.5c-0.2,0.6-1.2,3.5-1.2,3.5l-0.6-2c0.2,0,0.6,0,0.6,0
	c0-0.1,0.4-1.3,0.5-1.6c0.3-0.9,0.6-2.1,1-3.7C19.6,9.4,23.6,6.3,26.9,7.4z"/>
<title>logo-32</title>
<path class="st1" d="M11.1,16.6c1,0.4,2,0.7,3,1l-1.4-4.5C12.4,14,11.8,15.1,11.1,16.6z"/>
<path class="st1" d="M13.3,10.2c0-0.1,0-0.1,0-0.1l0,0C13.4,10.1,13.3,10.1,13.3,10.2z"/>
<path class="st1" d="M3.9,20.5c1.4-0.1,2.5-0.6,4.2-2.2c0.2-0.2,0.4-0.4,0.6-0.7c-5.3-2.4-7.5-0.4-7.7,0.7c0,0.2-0.1,0.4-0.1,0.6
	C1.1,20.1,2.6,20.5,3.9,20.5z"/>
<path d="M3.4,22.4c2.5,0.3,4.4-1.1,5.9-4.5c-0.2-0.1-0.5-0.2-0.7-0.3c-0.2,0.3-1.7,2.9-4.7,2.9c-1.3,0-2.8-0.4-3.1-1.6
	C0.7,20.7,1.8,22.2,3.4,22.4z"/>
<path d="M17.1,18.1c-0.1,0-0.2,0-0.3,0c-0.3,0-0.7-0.1-1-0.1c-0.1,0-0.1,0-0.2,0L13.4,10c0,0,0,0,0,0v0c0,0,0,0,0,0.1
	c-0.3,0.6-1.7,3.4-3.1,6.1C10,16.1,9.8,16.1,9.6,16c1.9-3.4,4.4-9,4.4-9L17.1,18.1z"/>
<path class="st0" d="M15.9,18c0.3,0.1,0.7,0.1,1,0.1C16.5,18.1,16.2,18,15.9,18z"/>
<path class="st0" d="M17.2,18.1c0,0-1-0.1-1.6-0.2L13.4,10c0,0-1.8,3.6-3.1,6.2c-0.2-0.1-7.9-3.3-9.5,1.3c0,0-1.8,5.9,2.6,6.6
	c2.9,0.5,4.8-1.2,7-5.8c1.5,0.5,3,0.9,4.4,1.2l1.3,4.2l0.7-2.1l-0.6-1.9c0,0,0.6,0,0.6,0C16.8,19.6,17.2,18.3,17.2,18.1z M3.8,22.3
	c-1.9,0-3.1-1.6-3-3.4c0-0.2,0-0.4,0.1-0.6c0.2-1.1,2.4-3.2,7.7-0.7c0,0,0.5,0.2,0.7,0.3C7.6,21.5,5.8,22.4,3.8,22.3z M11.2,16.6
	c0.7-1.4,1.2-2.5,1.6-3.5l1.4,4.5C13.2,17.3,12.1,17,11.2,16.6z"/>
<polygon points="16.6,21.2 16.6,21.2 16.5,20.7 16.5,20.7 "/>
</svg>
