<svg id="Layer_1" data-name="Layer 1" xmlns="http://www.w3.org/2000/svg" viewBox="0 0 261.2 132.9"><title>logo-264</title><polygon points="113.6 0.7 142.6 105.3 136.7 124.7 105.8 19.2 113.6 0.7" fill="#a01d21"/><path d="M115.1,66.2S79.6,149.5,65.3,163s-24.6,17.4-36.4,17.8S3.9,177.5,3.6,166.1s-8.2,21.2,8.7,29.2S47,193.9,47,193.9s27.8-9.8,43.5-51.1A794,794,0,0,0,115.1,66.2Z" transform="translate(-1.5 -65.6)" fill="#a01d21"/><path d="M3.1,163.8s5.5-26.2,67.1-6.5,80.8,19,100,18.3c37.2-1.4,59.2-1.5,92.6-42.7,0,0-24.4,30.7-115.8,28.4,0,0-40.1-5.9-68.1-17.9C78.9,143.3,10.9,109.3,3.1,163.8Z" transform="translate(-1.5 -65.6)" fill="#5a5b5b"/><path d="M225,69.4a15.5,15.5,0,0,0-4.5-2.3c-17.8-5.7-34.2,5.9-34.2,5.9S161.7,87,151.4,130s-13,59.9-13,59.9S160,121.2,172.1,106s22.2-20.4,33.8-22.4c4.9-.8,7.5-1.4,12-.4Z" transform="translate(-1.5 -65.6)" fill="#a01d21"/><text transform="translate(76.2 92.5) rotate(16.1)" font-size="17.27" fill="#fff" font-family="DidactGothic, Didact Gothic"> </text><text transform="translate(80.1 93.6) rotate(15.9)" font-size="17.27" fill="#fff" font-family="DidactGothic, Didact Gothic"> </text><text transform="translate(83.9 94.7) rotate(15.6)" font-size="17.27" fill="#fff" font-family="DidactGothic, Didact Gothic"> </text><text transform="matrix(0.97, 0.26, -0.26, 0.97, 87.77, 95.81)" font-size="17.27" fill="#fff" font-family="DidactGothic, Didact Gothic">a</text><text transform="translate(97.2 98.4) rotate(14.1)" font-size="17.27" fill="#fff" font-family="DidactGothic, Didact Gothic">s</text><text transform="translate(105.3 100.4) rotate(12.5)" font-size="17.27" fill="#fff" font-family="DidactGothic, Didact Gothic">r</text><text transform="matrix(0.99, 0.17, -0.17, 0.99, 113.18, 102.08)" font-size="17.27" fill="#fff" font-family="DidactGothic, Didact Gothic">i</text><text transform="matrix(0.99, 0.13, -0.13, 0.99, 116.78, 102.69)" font-size="17.27" fill="#fff" font-family="DidactGothic, Didact Gothic">n</text><path d="M96.2,151.1l-1,1.1a2.5,2.5,0,0,0-1.1-.3,5,5,0,0,0-3.8,1.1c-1.5,1.1-5.4,6.9-5.4,6.9h0V149.6c-.8,1.1-2,2.7-3.4,4.4-2.7,3.3-5.2,3.7-5.2,3.7a4.1,4.1,0,0,1-3.3-.8c-1.3-1.2.3-4,0-2.9s.8,1.8,2,2.1a5.1,5.1,0,0,0,3.9-.7c1.5-.8,6.3-6.4,7.1-7.5v-.2h0L85.9,158l1.9-3.3c2.1-3.7,4.7-4.4,4.7-4.4a4.1,4.1,0,0,1,3.3.4Z" transform="translate(-1.5 -65.6)" fill="#fff"/><text transform="matrix(1, 0.03, -0.03, 1, 159.07, 121.51)" font-size="17.27" font-family="DidactGothic, Didact Gothic">z</text><text transform="translate(166.8 121.7) rotate(-1.9)" font-size="17.27" font-family="DidactGothic, Didact Gothic">a</text><text transform="translate(176.7 121.3) rotate(-3.3)" font-size="17.27" font-family="DidactGothic, Didact Gothic">r</text><text transform="translate(184.3 120.9) rotate(-3.9)" font-size="17.27" font-family="DidactGothic, Didact Gothic">n</text><text transform="matrix(1, -0.09, 0.09, 1, 193.86, 120.31)" font-size="17.27" font-family="DidactGothic, Didact Gothic">o</text><text transform="matrix(0.99, -0.15, 0.15, 0.99, 203.64, 119.42)" font-size="17.27" font-family="DidactGothic, Didact Gothic">u</text><text transform="matrix(0.98, -0.2, 0.2, 0.98, 213.21, 117.89)" font-size="17.27" font-family="DidactGothic, Didact Gothic">s</text><text transform="translate(221.9 116.3) rotate(-16.2)" font-size="17.27" font-family="DidactGothic, Didact Gothic">h</text><path d="M159.4,188.7l-.6-.3-.6-11.7h0l-.2.3h-.2c-1,1.4-3.8,5.2-5.9,7.5-.7-.5-7.2-5.3-9.3.5h0c-.2.4-1.3,2.6.3,3.8a5.1,5.1,0,0,0,4.1.7,9.8,9.8,0,0,0,4.6-3.1,50.2,50.2,0,0,0,6,3v2l.9-1.6a20.2,20.2,0,0,0,3.2.8c4.4.8,6.9,1.3,11.8-2.5C172.8,188.9,168.9,191,159.4,188.7Zm-9.6-1.9a6.3,6.3,0,0,1-4.7,1.2c-1.4-.2-2.8-1.3-2.6-2.6s1.9-2.6,8,.9Zm2.9-1.4.4-.6c1.5-2.3,2.8-4.3,3.7-5.8l.6,8.8A35.8,35.8,0,0,1,152.7,185.3Z" transform="translate(-1.5 -65.6)"/></svg>