<?xml version="1.0" encoding="utf-8"?>
<!-- Generator: Adobe Illustrator 21.1.0, SVG Export Plug-In . SVG Version: 6.00 Build 0)  -->
<svg version="1.1" id="Layer_1" xmlns="http://www.w3.org/2000/svg" xmlns:xlink="http://www.w3.org/1999/xlink" x="0px" y="0px"
	 viewBox="0 0 16 16" style="enable-background:new 0 0 16 16;" xml:space="preserve">
<style type="text/css">
	.st0{fill:none;stroke:#6D6C6D;stroke-width:0.25;stroke-miterlimit:10;}
	.st1{fill:none;stroke:#6D6C6D;stroke-width:0.1;stroke-miterlimit:10;}
</style>
<path class="st0" d="M15.6,8.1c0,4.3-3.5,7.7-7.7,7.7c-2.3,0-4.4-1-5.8-2.7c-1.2-1.4-1.9-3.1-1.9-5c0-4.3,3.5-7.7,7.7-7.7
	S15.6,3.8,15.6,8.1z"/>
<path class="st1" d="M1.7,11.9c0,0,0.7,0.5,1.5-0.7S5.3,0.8,5.3,0.8l5.4,14.2l0.7-11.2c0,0,0.2-1.5,1.2-0.8c1,0.7,2.3,2.6,2.2,6.9
	C14.6,16.6-1.6,4.6-1.6,4.6V4.3c0,0,6.9,4.2,8.7,5.2c1.8,0.9,4.6,2.2,6.3,1.9c1.1-0.2,1-2.4,1-2.4s-0.1-2.8-0.9-4
	c-1.5-2.1-1.5,0.3-1.5,0.3L11,16h-0.5L5.6,3.5c0,0-1.1,7.5-2.2,9.1C2.6,13.4,1.7,11.9,1.7,11.9z"/>
</svg>
