<svg id="Layer_1" data-name="Layer 1" xmlns="http://www.w3.org/2000/svg" viewBox="0 0 15.8 8"><title>logo-16 new</title><polygon points="6.9 0 8.6 6.4 8.3 7.5 6.4 1.2 6.9 0" fill="#a01d21"/><path d="M7,4s-2.2,5-3,5.8A3.2,3.2,0,0,1,1.8,11C1,11,.2,10.7.2,10.1s-.5,1.3.5,1.8a2.6,2.6,0,0,0,2.1-.1A5,5,0,0,0,5.5,8.6,48,48,0,0,0,7,4Z" transform="translate(-0.1 -4)" fill="#a01d21"/><path d="M.2,9.9s.3-1.6,4.1-.4,4.9,1.1,6,1.1,3.6-.1,5.6-2.6c0,0-1.5,1.9-7,1.7A19.8,19.8,0,0,1,4.8,8.7S.7,6.6.2,9.9Z" transform="translate(-0.1 -4)" fill="#5a5b5b"/><path d="M13.6,4.2h-.3a2.6,2.6,0,0,0-2.1.4A5.3,5.3,0,0,0,9.2,7.9c-.6,2.6-.8,3.6-.8,3.6s1.3-4.1,2-5.1a3.1,3.1,0,0,1,2-1.4h.7Z" transform="translate(-0.1 -4)" fill="#a01d21"/><text transform="translate(4.6 5.6) rotate(16.1)" font-size="1.04" fill="#fff" font-family="DidactGothic, Didact Gothic"> </text><text transform="matrix(0.96, 0.27, -0.27, 0.96, 4.87, 5.69)" font-size="1.04" fill="#fff" font-family="DidactGothic, Didact Gothic"> </text><text transform="matrix(0.96, 0.27, -0.27, 0.96, 5.12, 5.76)" font-size="1.04" fill="#fff" font-family="DidactGothic, Didact Gothic"> </text><text transform="matrix(0.97, 0.25, -0.25, 0.97, 5.34, 5.82)" font-size="1.04" fill="#fff" font-family="DidactGothic, Didact Gothic">a</text><text transform="translate(6 6) rotate(12.9)" font-size="1.04" fill="#fff" font-family="DidactGothic, Didact Gothic">s</text><text transform="translate(6.4 6.1) rotate(11.2)" font-size="1.04" fill="#fff" font-family="DidactGothic, Didact Gothic">r</text><text transform="translate(6.9 6.2) rotate(9.7)" font-size="1.04" fill="#fff" font-family="DidactGothic, Didact Gothic">i</text><text transform="translate(7.1 6.2) rotate(7.5)" font-size="1.04" fill="#fff" font-family="DidactGothic, Didact Gothic">n</text><path d="M5.8,9.2H5.5l-.3.4h0V9.1l-.2.3-.3.2H4.4c-.1-.1,0-.2,0-.2h.4L5.2,9h0v.4a.5.5,0,0,1,.3-.3h.2Z" transform="translate(-0.1 -4)" fill="#fff"/><text transform="translate(9.6 7.3) rotate(1.2)" font-size="1.04" font-family="DidactGothic, Didact Gothic">z</text><text transform="translate(10.1 7.3) rotate(-0.6)" font-size="1.04" font-family="DidactGothic, Didact Gothic">a</text><text transform="translate(10.7 7.3) rotate(-2.5)" font-size="1.04" font-family="DidactGothic, Didact Gothic">r</text><text transform="translate(11.2 7.3) rotate(-5.3)" font-size="1.04" font-family="DidactGothic, Didact Gothic">n</text><text transform="matrix(0.99, -0.14, 0.14, 0.99, 11.77, 7.2)" font-size="1.04" font-family="DidactGothic, Didact Gothic">o</text><text transform="translate(12.3 7.2) rotate(-10.4)" font-size="1.04" font-family="DidactGothic, Didact Gothic">u</text><text transform="translate(13 7.1) rotate(-13.4)" font-size="1.04" font-family="DidactGothic, Didact Gothic">s</text><text transform="translate(13.5 7) rotate(-17.1)" font-size="1.04" font-family="DidactGothic, Didact Gothic">h</text><path d="M9.6,11.4h0v-.7h0l-.4.5s-.4-.3-.6,0h0s-.1.2,0,.2h.2l.3-.2.4.2h.3a.7.7,0,0,0,.7-.2A1.1,1.1,0,0,1,9.6,11.4Zm-.6-.1H8.8l-.2-.2s.1-.2.5.1Zm.2-.1h0l.2-.4v.5Z" transform="translate(-0.1 -4)"/></svg>