<svg id="Layer_1" data-name="Layer 1" xmlns="http://www.w3.org/2000/svg" viewBox="0 0 63 32.1"><title>logo-64</title><polygon points="27.4 0.2 34.4 25.4 33 30.1 25.5 4.6 27.4 0.2" fill="#a01d21"/><path d="M27.9,15.8s-8.6,20.1-12,23.4-5.9,4.2-8.8,4.3S1,42.7,1,39.9-1,45,3.1,47s8.4-.3,8.4-.3S18.2,44.3,22,34.3A191.7,191.7,0,0,0,27.9,15.8Z" transform="translate(-0.5 -15.7)" fill="#a01d21"/><path d="M.8,39.4S2.2,33,17,37.8s19.5,4.6,24.1,4.4c9-.3,14.3-.4,22.3-10.3,0,0-5.9,7.4-27.9,6.9,0,0-9.7-1.4-16.4-4.3C19.2,34.4,2.7,26.2.8,39.4Z" transform="translate(-0.5 -15.7)" fill="#5a5b5b"/><path d="M54.4,16.6,53.3,16c-4.3-1.4-8.3,1.4-8.3,1.4s-5.9,3.4-8.4,13.7-3.1,14.5-3.1,14.5,5.2-16.6,8.1-20.2S47,20.5,49.8,20a6.5,6.5,0,0,1,2.9-.1Z" transform="translate(-0.5 -15.7)" fill="#a01d21"/><text transform="translate(18.4 22.3) rotate(16.1)" font-size="4.17" fill="#fff" font-family="DidactGothic, Didact Gothic"> </text><text transform="translate(19.3 22.6) rotate(15.9)" font-size="4.17" fill="#fff" font-family="DidactGothic, Didact Gothic"> </text><text transform="translate(20.3 22.9) rotate(15.6)" font-size="4.17" fill="#fff" font-family="DidactGothic, Didact Gothic"> </text><text transform="translate(21.2 23.1) rotate(15.1)" font-size="4.17" fill="#fff" font-family="DidactGothic, Didact Gothic">a</text><text transform="translate(23.5 23.7) rotate(14.1)" font-size="4.17" fill="#fff" font-family="DidactGothic, Didact Gothic">s</text><text transform="matrix(0.98, 0.21, -0.21, 0.98, 25.46, 24.24)" font-size="4.17" fill="#fff" font-family="DidactGothic, Didact Gothic">r</text><text transform="translate(27.4 24.6) rotate(9.4)" font-size="4.17" fill="#fff" font-family="DidactGothic, Didact Gothic">i</text><text transform="matrix(0.99, 0.13, -0.13, 0.99, 28.28, 24.79)" font-size="4.17" fill="#fff" font-family="DidactGothic, Didact Gothic">n</text><path d="M23.3,36.3l-.2.3h-.3a1.2,1.2,0,0,0-.9.3,12.7,12.7,0,0,0-1.3,1.7h0V35.9L19.8,37a2.4,2.4,0,0,1-1.3.9,1,1,0,0,1-.8-.2c-.3-.3.1-1,0-.7s.2.4.5.5a1.2,1.2,0,0,0,.9-.2,13.1,13.1,0,0,0,1.7-1.8h0V38l.5-.8a2.1,2.1,0,0,1,1.1-1.1,1,1,0,0,1,.8.1Z" transform="translate(-0.5 -15.7)" fill="#fff"/><text transform="translate(38.4 29.3) rotate(1.5)" font-size="4.17" font-family="DidactGothic, Didact Gothic">z</text><text transform="translate(40.2 29.4) rotate(-1)" font-size="4.17" font-family="DidactGothic, Didact Gothic">a</text><text transform="translate(42.7 29.3) rotate(-3.1)" font-size="4.17" font-family="DidactGothic, Didact Gothic">r</text><text transform="translate(44.5 29.2) rotate(-4)" font-size="4.17" font-family="DidactGothic, Didact Gothic">n</text><text transform="matrix(0.99, -0.1, 0.1, 0.99, 46.88, 29.03)" font-size="4.17" font-family="DidactGothic, Didact Gothic">o</text><text transform="translate(49.2 28.8) rotate(-8.1)" font-size="4.17" font-family="DidactGothic, Didact Gothic">u</text><text transform="translate(51.6 28.4) rotate(-11.9)" font-size="4.17" font-family="DidactGothic, Didact Gothic">s</text><text transform="translate(53.7 28) rotate(-16.2)" font-size="4.17" font-family="DidactGothic, Didact Gothic">h</text><path d="M38.6,45.4h-.2l-.2-2.8h-.1l-1.4,1.8c-.2-.1-1.7-1.3-2.3.1h0c-.1.1-.3.6.1.9a1.2,1.2,0,0,0,1,.2,2.4,2.4,0,0,0,1.1-.7l1.5.7v.5l.2-.4.8.2a2.8,2.8,0,0,0,2.8-.6C41.8,45.4,40.9,45.9,38.6,45.4Zm-2.3-.5a1.5,1.5,0,0,1-1.1.3c-.3-.1-.7-.3-.6-.6s.5-.6,1.9.2Zm.7-.3h.1l.9-1.4v2.1Z" transform="translate(-0.5 -15.7)"/></svg>