<?xml version="1.0" encoding="utf-8"?>
<!-- Generator: Adobe Illustrator 22.0.1, SVG Export Plug-In . SVG Version: 6.00 Build 0)  -->
<svg version="1.1" id="Layer_1" xmlns="http://www.w3.org/2000/svg" xmlns:xlink="http://www.w3.org/1999/xlink" x="0px" y="0px"
	 viewBox="0 0 289.3 299.5" style="enable-background:new 0 0 289.3 299.5;" xml:space="preserve">
<style type="text/css">
	.st0{fill:#333333;}
</style>
<title>mail-red</title>
<path class="st0" d="M2.8,100.2L1.5,273.7c0,1.3,2.6,3.7,3.9,3.7l278.1-0.2c2.3,0,4.2-1.9,4.2-4.2l0,0l-0.2-170l-142.4,72.2
	c-1.6,0.8-3.4,0.8-5,0L2.8,100.2z"/>
<path class="st0" d="M5,92.1l280.6,1.2c0.6,0,0.8,0.8,0.3,1.1l-140.2,70.8c-1.5,0.7-3.1,0.7-4.6,0L4.7,93.2
	C4.1,92.9,4.3,92.1,5,92.1z"/>
</svg>
