<?xml version="1.0" encoding="utf-8"?>
<!-- Generator: Adobe Illustrator 21.1.0, SVG Export Plug-In . SVG Version: 6.00 Build 0)  -->
<svg version="1.1" id="Layer_1" xmlns="http://www.w3.org/2000/svg" xmlns:xlink="http://www.w3.org/1999/xlink" x="0px" y="0px"
	 viewBox="0 0 256 256" style="enable-background:new 0 0 256 256;" xml:space="preserve">
<style type="text/css">
	.st0{fill:#BC2A29;}
	.st1{fill:none;}
</style>
<g id="logo-16">
</g>
<path d="M107.5,117.5c-6.1,12.9-11,27-15.2,29.8c-12.5,9.6-16.5-9.4-16.5-9.4s9.9,7.4,16.9-2.1c2.4-3.2,5.4-10.7,9.5-20.7
	c1.6,0.6,3.3,1.5,4.9,2.2c0,0.1,0.1,0.1,0.2,0.1c0,0,0,0,0.1,0S107.4,117.5,107.5,117.5z"/>
<path class="st0" d="M189.9,131.2l-0.3,0.3l-9.1,8.7l-0.4,0.4l-1.5,1.5c-1.2,0.9-2.4,1.2-4,1.2c-4.6,0-10.1-1.1-15.9-2.8
	c-2-0.6-4.1-1.3-6.1-2c-4.2-1.5-8.3-3.3-12.4-5.1c-2.4-1.1-4.8-2.2-7.1-3.4c-3.2-1.6-6.4-3.2-9.2-4.8c-4.7-2-14.6-6.7-16.7-7.8
	c-0.1,0-3.7-1.8-5.3-2.4c-7.2-3.2-14-5.7-19.3-5.8C69.1,108.9,62.4,133,62.4,133s-0.3-16.1,5.7-26.4c3.5-6.2,11-9.3,17.5-8.5
	c2.9,0,10.4,3.3,20.1,7.9c1.6,0.8,3.4,1.6,5.1,2.5c6.2,3,13,6.3,20.1,9.5c2.3,1.1,4.7,2.1,7,3.1c6.1,2.8,12.2,5.2,18.1,7.3
	c2,0.7,4.1,1.4,6.1,2c8.3,2.5,15.9,3.9,21.6,3.1C186.2,133.1,188.3,132.4,189.9,131.2z"/>
<path d="M190.3,130.2c0,0-0.2,0.2-0.4,0.4l-0.4,0.4c-1.6,1.2-3.7,2-6.3,2.3c1.5-5.5-2.5-47.8-10.9-33.5c-1.9,4.3-6,16.5-10.7,30.4
	c-2-0.6-4.1-1.3-6.1-2c0,0,12.6-33.9,13.8-36.5c3.8-7.8,16.9-17,23.5,19.7C194.5,121.1,193.6,126.9,190.3,130.2z"/>
<path d="M158,139.8c-7.3,22.3-14.5,45.2-14.5,45.2l-14.8-57.5c2.3,1.2,9.3,4.6,11.7,5.6l6,21.5l5.5-16.8
	C153.9,138.4,156,139.2,158,139.8z"/>
<path d="M138.3,121.6c-2.3-1-6.1-2.7-11.8-5.7l-6.1-27c0,0-1.6,4.1-8.2,20.5c-1.8-0.9-4.5-2.1-6.1-2.9c9.1-23.2,18.5-51.4,18.5-51.4
	L138.3,121.6z"/>
<path id="SVGID_x5F_1_x5F_" class="st1" d="M155.4,185l15.1-45"/>
<text><textPath  xlink:href="#SVGID_x5F_1_x5F_" startOffset="11.2305%">
<tspan  style="font-family:'MyriadPro-Regular'; font-size:16px;">Nasrin</tspan></textPath>
</text>
<path id="SVGID_x5F_2_x5F_" class="st1" d="M75.8,96.8c0,0,6.8-2.1,11,0c4.2,2.1,69.3,29.6,69.3,29.6"/>
<text><textPath  xlink:href="#SVGID_x5F_2_x5F_" startOffset="33.5938%">
<tspan  class="st0" style="font-family:'MyriadPro-Regular'; font-size:18px;">Azarnoush</tspan></textPath>
</text>
</svg>
