<?xml version="1.0" encoding="utf-8"?>
<!-- Generator: Adobe Illustrator 22.0.1, SVG Export Plug-In . SVG Version: 6.00 Build 0)  -->
<svg version="1.1" id="Layer_1" xmlns="http://www.w3.org/2000/svg" xmlns:xlink="http://www.w3.org/1999/xlink" x="0px" y="0px"
	 viewBox="0 0 64 64" style="enable-background:new 0 0 64 64;" xml:space="preserve">
<style type="text/css">
	.st0{fill:#FFFFFF;}
</style>
<g id="logo-16">
</g>
<g>
	<path class="st0" d="M15.5,41.4h4.7v0.5h-5.8c-0.1,0-0.1-0.1,0-0.1l4.7-5.2h-4v-0.5h5c0.1,0,0.1,0.1,0.1,0.2L15.5,41.4z"/>
	<path class="st0" d="M26.5,36.1h0.6v5.8h-0.6v-1c-0.6,0.9-1.5,1.2-2.3,1.2c-1.5,0-2.8-1.2-2.8-3.1c0-1.8,1.1-3,2.8-3
		c0.9,0,1.7,0.4,2.3,1.1V36.1z M22,39c0,1.3,0.8,2.6,2.3,2.6s2.3-1.2,2.3-2.6c0-1.7-1.3-2.5-2.3-2.5C23.1,36.5,22,37.4,22,39z"/>
	<path class="st0" d="M29.9,36.1h0.6v0.8c0.2-0.5,0.7-0.9,1.3-0.9c0.2,0,0.4,0,0.6,0.1L32,36.6c-0.1,0-0.2-0.1-0.4-0.1
		c-1.2,0-1.2,1.6-1.2,2.3v3.1h-0.6v-5.8H29.9z"/>
	<path class="st0" d="M34,36.1h0.6V37c0.3-0.5,0.8-1,1.8-1s1.5,0.6,1.6,0.8c0.3,0.4,0.3,1,0.3,1.5V42h-0.6v-3.7c0-0.4,0-0.8-0.2-1.2
		c-0.1-0.2-0.4-0.6-1.1-0.6c-0.8,0-1.2,0.4-1.4,0.8c-0.3,0.5-0.3,1-0.3,1.6v3H34V36.1z"/>
	<path class="st0" d="M46.1,39c0,1.7-1.3,3.1-3.1,3.1c-1.7,0-3.1-1.3-3.1-3.1c0-1.7,1.3-3.1,3.1-3.1C44.7,36,46.1,37.3,46.1,39z
		 M45.5,39c0-1.4-1.1-2.5-2.5-2.5s-2.5,1.1-2.5,2.5s1.1,2.5,2.5,2.5S45.5,40.4,45.5,39z"/>
	<path class="st0" d="M48,36.1v3.5c0,0.4,0,1,0.4,1.5c0.4,0.4,0.9,0.5,1.2,0.5s0.8,0,1.2-0.5c0.4-0.4,0.4-1,0.4-1.5v-3.5h0.6v3.7
		c0,0.5,0,1.1-0.4,1.6c-0.4,0.6-1.1,0.7-1.7,0.7S48.5,42,48,41.4c-0.4-0.5-0.4-1.1-0.4-1.6v-3.7C47.6,36.1,48,36.1,48,36.1z"/>
	<path class="st0" d="M56.1,37.2c-0.2-0.5-0.6-0.7-1-0.7c-0.7,0-1,0.5-1,0.9c0,0.6,0.5,0.8,1,1c0.6,0.2,1.1,0.4,1.5,0.9
		c0.2,0.3,0.3,0.6,0.3,0.9c0,1.3-1,1.9-1.9,1.9c-1,0-1.8-0.6-2-1.5l0.6-0.2c0.2,0.8,0.8,1.2,1.5,1.2s1.3-0.5,1.3-1.3
		c0-0.7-0.4-0.9-1.3-1.3c-0.6-0.2-1-0.4-1.3-0.8c-0.1-0.2-0.3-0.4-0.3-0.8c0-0.9,0.7-1.5,1.6-1.5c0.7,0,1.3,0.3,1.5,0.9L56.1,37.2z"
		/>
	<path class="st0" d="M58.4,31.5H59V37c0.3-0.5,0.8-1,1.8-1s1.5,0.6,1.6,0.8c0.3,0.4,0.3,1,0.3,1.5V42h-0.6v-3.7
		c0-0.4,0-0.8-0.2-1.2c-0.1-0.2-0.4-0.6-1.1-0.6c-0.8,0-1.2,0.4-1.4,0.8c-0.3,0.5-0.3,1-0.3,1.6v3h-0.6L58.4,31.5L58.4,31.5z"/>
</g>
<path class="st0" d="M29.3,43.3v-0.5c0,0-7.1,4.5-16.4-0.6l-2.5-8.4c0-0.1-0.1-0.1-0.1,0C10,34.3,9,36.2,7.8,38.5
	c-4.8-2.9-7.5-0.6-7.6,1.4C0,41.3,1.1,42.8,3,43c1.4,0.1,3.1-0.1,4.6-3.1c0-0.1,0.2-0.4,0.3-0.5l0,0c1.7,1.3,3.1,2.4,4.4,3.2
	l0.7,2.3l0.7,0.1l-0.6-2C22.3,47.7,29.3,43.3,29.3,43.3z M3.5,42.4c-1.8-0.1-2.7-1.2-2.7-2.5c0-1.4,2.4-3.6,6.6-0.8
	C6.4,41.2,5.1,42.5,3.5,42.4z M8.2,38.9c1-1.7,1.9-3.6,1.9-3.6l1.9,6.5C10.8,41,10,40.2,8.2,38.9z"/>
<g>
	<path class="st0" d="M2.6,24.2c-0.4,1-1.8,0.9-2.3,0.9c-0.1,0-0.2-0.1-0.2-0.2c1.2-5.6,7.9-7.7,9.2-5.3c2.3,4.6,4.5,7.3,5.3,8.5
		c0.2,0.3,0.2,0.3,0.3,0c0.4-2.1-0.1-10.5,5.6-10.9c5-0.3,12.2,2.1,16.5,2.6c3.2,0.4,4.7-0.1,5.8-0.5c0.8-0.3,1.5,0,1.7,0.6l0.4,1.1
		c-1,0.2-3.8,1.6-8.1,0.9c-3.4-0.5-10.4-2.9-14.3-2.7c-7,0.4-5.7,10.5-6,13.5c0,0-1,0.4-1.5-0.2c-1.2-1.6-6.8-10.1-6.8-10.1
		c-0.1,2.2,0,9.8-1.5,10.4C5.1,33.4,2.2,33,2.2,33c5-2.8,5.2-11,4.1-11.9c0,0-0.8-0.9-2.2,0.6C3.4,22.4,2.9,23.6,2.6,24.2z"/>
</g>
<g>
	<g>
		<path class="st0" d="M63,28.8c-0.1,0-0.2,0.1-0.3,0.2c0,0-0.5,1-1.1,1.8c-0.4,0.5-1,1-1.5,1c-0.7,0-0.8-0.7-0.8-1.6
			c0-1.5,0.5-3.2,0.5-4.8c0-1.4-0.4-2.5-2-2.5c-1.7,0-2.7,1.3-3.4,2.6h-0.1c0,0,0.2-0.6,0.2-1.1c0-0.9-0.4-1.4-1.2-1.4
			c-0.5,0-1.1,0.2-1.1,0.2s0.2,0.9,0.2,2c0,0.9-0.2,2.2-0.3,3.6L52,28.9c0,0-0.7,1.5-1.6,2.3c-0.3,0.3-0.7,0.5-1,0.5
			c-0.7,0-0.8-0.7-0.8-1.6c0-1.4,0.7-3.7,0.7-5.8c0-0.9-0.4-1.4-1.2-1.4c-0.5,0-1.1,0.2-1.1,0.2s0.2,0.9,0.2,2
			c0,1.3-0.2,2.6-0.3,3.6l0,0c0,0,0,0.1-0.1,0.1c-0.2,0.5-1.6,2.8-3.3,2.8c-1,0-1.2-0.8-1.2-1.6c0-1.7,1.1-4.3,1.7-5.5l0.7-0.3
			c0.1-0.1,0.2-0.3,0.2-0.5c0-0.3-0.1-0.5-0.3-0.6c-0.8,0-1.5,0.2-1.8,0.7c-0.4,0.1-0.9,0.2-1.4,0.2c-1.1,0-1.9-0.5-1.9-0.5
			C39.3,23.3,39,23,38.8,23c-0.7,0-1,1.2-1,1.7c0,0.4,0.3,0.5,0.7,0.7c0.2,0.6,0.3,1.2,0.3,1.9c0,0.5-0.1,1-0.2,1.5l0,0
			c-0.2,0.4-1.2,2.5-3.1,2.9c0.3-0.4,0.5-1,0.5-1.6c0-3.1-3.8-3.1-3.8-5c0-0.7,0.6-1,1.2-1c1.1,0,2.2,1.1,2.2,1.1h0.1
			c0.3-0.4,0.4-0.7,0.4-1c0-0.8-1.3-1.1-2.3-1.1c-1.7,0-3.3,1-3.3,2.7c0,2.8,3.8,2.9,3.8,5c0,0.9-0.7,1.4-1.7,1.4
			c-1.3,0-1.8-0.8-1.8-1.8c0-0.5,0.2-1,0.5-1.5c0,0-0.2-0.2-0.6-0.2c-0.8,0-1.3,0.8-1.3,1.8c0,0.1,0,0.2,0,0.3l0,0c0,0,0,0-0.1,0.1
			c-0.5,0.6-1,1-1.5,1c-0.7,0-0.8-0.7-0.8-1.6c0-0.7,0.7-6,0.9-6.9l-0.1-0.1c-1.4,0-2.2-0.3-2.9-0.3c-3.1,0-5.4,3-5.4,6.6
			c0,2.1,0.9,3.5,2.3,3.5s2.5-1.3,3.1-2.4H25c0,0.1,0,0.2,0,0.3c0,1.2,0.7,2,2,2c0.9,0,1.7-0.5,2.4-1.1c0.1-0.1,0.2-0.2,0.3-0.3
			c0.4,0.9,1.3,1.5,2.8,1.5c0.6,0,1.1-0.1,1.6-0.3c0.5,0,2.5-0.1,4.3-2.5c0.3-0.4,0.5-0.7,0.6-1c0,0,0,0,0-0.1
			c0.4-0.8,0.6-1.7,0.6-2.6c0-0.3,0-0.6-0.1-0.9c0.2,0,0.6,0.1,0.9,0.1c0.5,0,0.8-0.1,1.3-0.2c-0.6,1.2-1.3,3.2-1.3,5
			c0,1.6,0.8,2.4,2.1,2.4c1.9,0,3.2-1.3,4-2.4c0,0.1,0,0.2,0,0.2c0,1.3,0.7,2.2,1.9,2.2c0.7,0,1.3-0.3,1.8-0.7
			c0.6-0.5,1.1-1.1,1.5-1.7c-0.1,0.9-0.2,1.8-0.2,2.4c1.9,0,2.1,0,2.1-1.5c0-1.6,0.2-3.1,0.8-4.7c0.5-1.2,1.4-2.5,2.3-2.5
			c0.6,0,0.9,0.5,0.9,1.6c0,1.5-0.5,3.9-0.5,5c0,1.3,0.7,2.2,1.9,2.2c1,0,1.8-0.5,2.4-1.1c1.1-1.1,1.8-2.6,1.8-2.6
			C63.4,29,63.2,28.8,63,28.8z M25.2,28.1c-0.2,1.4-1.6,3.8-2.7,3.8c-0.7,0-1-1.2-1-2.4c0-2.2,1-5.5,3.1-5.5c0.6,0,0.9,0.3,1,0.9
			C25.5,26,25.4,27.1,25.2,28.1z"/>
	</g>
</g>
<g>
	<path class="st0" d="M48.2,20.1c0,0-0.5-0.1-0.7-0.4c-0.2-0.4,0.2-0.5,0.4-0.4c0,0,0-0.5,0.4-0.2c0,0,0.3,0.2,0.1,0.9L48.2,20.1z"
		/>
	<path class="st0" d="M48.2,20.3c0,0-0.2,0.4-0.6,0.6c-0.4,0.1-0.4-0.3-0.3-0.5c0,0-0.5-0.2-0.1-0.5c0,0,0.3-0.2,0.9,0.2L48.2,20.3z
		"/>
	<path class="st0" d="M48.4,20c0-0.8,0.4-0.9,0.4-0.9c0.5-0.1,0.4,0.4,0.4,0.4c0.2,0,0.5,0.2,0.2,0.5c-0.3,0.2-0.8,0.2-0.8,0.2
		L48.4,20z"/>
	<path class="st0" d="M48.5,20.1c0.7-0.3,0.9-0.1,0.9-0.1c0.3,0.4-0.2,0.5-0.2,0.5c0.1,0.2,0.1,0.6-0.4,0.4
		c-0.3-0.2-0.5-0.6-0.5-0.6L48.5,20.1z"/>
	<path class="st0" d="M48.4,20.3c0.5,0.6,0.3,0.9,0.3,0.9c-0.3,0.4-0.5,0-0.5,0c-0.1,0.2-0.5,0.2-0.5-0.2c0.1-0.4,0.5-0.7,0.5-0.7
		L48.4,20.3z"/>
</g>
</svg>
